<svg version="1.1" xmlns="http://www.w3.org/2000/svg"  viewBox="0 0 1024 1024" width="1024" height="1024"><path d="M0 0 C337.92 0 675.84 0 1024 0 C1024 337.92 1024 675.84 1024 1024 C686.08 1024 348.16 1024 0 1024 C0 686.08 0 348.16 0 0 Z " transform="translate(0,0)" style="fill: #000000;"></path><path d="M0 0 C0.77085937 0.51175781 1.54171875 1.02351563 2.3359375 1.55078125 C14.74731926 10.42513101 23.35334819 25.89823647 26.5 40.6875 C29.50506345 60.59604533 27.6811373 79.84979009 15.73046875 96.77734375 C6.25788198 108.94416513 -4.6624918 118.50188974 -19.12109375 124.23828125 C-23.18261844 126.72369188 -24.73678184 129.89991697 -27 134 C-27.96690956 135.64377963 -28.93711641 137.28562301 -29.91015625 138.92578125 C-30.96110508 140.72125609 -32.01187943 142.51683306 -33.0625 144.3125 C-37.90495811 152.55603429 -42.88330897 160.69548369 -48.04125977 168.74536133 C-48.95091998 170.16703256 -49.85437022 171.59270335 -50.75048828 173.02294922 C-51.56416364 174.31039413 -52.40025134 175.58402915 -53.26123047 176.84033203 C-55.27690886 179.94449401 -56.00628328 181.77430445 -55.90234375 185.5078125 C-54.9819387 189.06989959 -53.87557122 192.43841597 -52.5625 195.875 C-42.79309294 221.47959521 -47.30119981 250.42737651 -58 275 C-63.3954727 286.3954727 -63.3954727 286.3954727 -66 289 C-73.10961214 289.45868465 -73.10961214 289.45868465 -76.0625 287.9375 C-77.58167621 284.79786916 -76.69385379 282.35989301 -76 279 C-74.81684823 276.46230532 -73.60173103 274.06551416 -72.25 271.625 C-61.80223475 251.84761713 -58.1220786 227.27280251 -63.6875 205.4375 C-65.30461723 200.39555949 -67.47946026 195.79905063 -69.9375 191.12109375 C-71.58616679 187.82982144 -72.19529437 185.71059307 -72 182 C-68.95728789 174.32077419 -63.74636375 167.43267308 -59.2434082 160.53930664 C-52.58396341 150.34164544 -46.43854831 139.88196859 -40.5 129.25 C-40.0661499 128.47470947 -39.6322998 127.69941895 -39.18530273 126.90063477 C-38.78384033 126.17545654 -38.38237793 125.45027832 -37.96875 124.703125 C-37.61232422 124.06020508 -37.25589844 123.41728516 -36.88867188 122.75488281 C-33.97895942 117.00900009 -33.82005279 108.9886559 -35.63671875 102.84765625 C-36.54770135 101.03013487 -37.55642445 99.44357555 -39 98 C-42.37517912 97.63904334 -44.2777268 97.46787069 -47.0625 99.51953125 C-53.17207925 106.75002121 -58.74464677 114.33102831 -64.31640625 121.98046875 C-72.8329373 133.6402469 -81.76793701 144.92515403 -91.25 155.8125 C-93.84394922 158.79662543 -96.3342255 161.85640198 -98.8125 164.9375 C-101.86562852 168.69860035 -105.0148173 172.21815668 -108.515625 175.56640625 C-110.15158625 177.10451637 -110.15158625 177.10451637 -112.0625 179.375 C-114.71935214 181.6033276 -116.550569 182 -120 182 C-122.375 180.4375 -122.375 180.4375 -124 178 C-124.4116814 174.48634709 -124.4411773 172.66065186 -122.453125 169.68359375 C-121.72609375 168.94238281 -120.9990625 168.20117188 -120.25 167.4375 C-119.43015625 166.57898438 -118.6103125 165.72046875 -117.765625 164.8359375 C-116.85296875 163.90007812 -115.9403125 162.96421875 -115 162 C-112.98652896 159.86658323 -110.99174164 157.71619768 -109 155.5625 C-108.48953125 155.01223145 -107.9790625 154.46196289 -107.453125 153.89501953 C-102.73672401 148.78007063 -98.33397612 143.44209501 -94 138 C-93.38125 137.23816406 -92.7625 136.47632813 -92.125 135.69140625 C-84.35605444 126.09352143 -76.95181882 116.20378187 -69.484375 106.37109375 C-68.91098389 105.61771729 -68.33759277 104.86434082 -67.74682617 104.08813477 C-66.65920075 102.65904005 -65.5733 101.22863036 -64.48950195 99.79663086 C-53.97788747 85.99262916 -53.97788747 85.99262916 -48 84 C-44.00548318 83.48276128 -40.02251116 83.18875861 -36 83 C-36 83.66 -36 84.32 -36 85 C-35.278125 85.226875 -34.55625 85.45375 -33.8125 85.6875 C-26.88889668 88.91851488 -23.66722426 95.13994071 -21 102 C-20.39799875 104.72877938 -20.15567368 107.19787384 -20 110 C-9.83058066 104.36218611 -9.83058066 104.36218611 -2 96 C-1.2575 95.319375 -0.515 94.63875 0.25 93.9375 C10.31768602 83.92921036 13.36849262 70.68368914 13.5 57 C13.4313139 48.34409011 12.45739287 41.01161383 9 33 C8.53207031 31.8553125 8.53207031 31.8553125 8.0546875 30.6875 C6.08157916 26.31018402 3.45227163 22.93682377 0.171875 19.4453125 C-1 18 -1 18 -1 16 C-1.86818359 15.59201172 -1.86818359 15.59201172 -2.75390625 15.17578125 C-4.98869345 14.00591873 -6.89970535 12.66988805 -8.9375 11.1875 C-16.48081787 6.07508523 -26.1268416 1.88121672 -35.37109375 1.8671875 C-36.19287109 1.86589844 -37.01464844 1.86460937 -37.86132812 1.86328125 C-39.1365332 1.86908203 -39.1365332 1.86908203 -40.4375 1.875 C-41.7069043 1.86919922 -41.7069043 1.86919922 -43.00195312 1.86328125 C-49.37719296 1.87326596 -54.5555803 2.7235449 -60.5625 4.9375 C-61.95662109 5.44603516 -61.95662109 5.44603516 -63.37890625 5.96484375 C-66.79096605 7.31237855 -69.39197079 8.39197079 -72 11 C-73.2054074 11.83756007 -74.41418427 12.67027767 -75.625 13.5 C-85.75963524 21.13316447 -91.40498793 31.66632446 -94 44 C-94.09089119 45.73516435 -94.1306456 47.47339561 -94.1328125 49.2109375 C-94.13410156 50.20867187 -94.13539063 51.20640625 -94.13671875 52.234375 C-94.13285156 53.27078125 -94.12898438 54.3071875 -94.125 55.375 C-94.12886719 56.40367187 -94.13273437 57.43234375 -94.13671875 58.4921875 C-94.13034789 63.43597311 -94.05145678 68.14327107 -93 73 C-92.443125 72.443125 -91.88625 71.88625 -91.3125 71.3125 C-89.76948675 69.76948675 -88.21468879 68.23816985 -86.6484375 66.71875 C-83.13324912 63.11023804 -80.09854767 59.18756401 -76.98828125 55.23046875 C-76.33214844 54.49441406 -75.67601562 53.75835937 -75 53 C-74.34 53 -73.68 53 -73 53 C-73 52.34 -73 51.68 -73 51 C-62.6603088 42.02313342 -48.86860862 42.30222352 -36 43 C-35.34 43.33 -34.68 43.66 -34 44 C-32.35554606 44.07051689 -30.70832146 44.08425094 -29.0625 44.0625 C-28.18722656 44.05347656 -27.31195313 44.04445313 -26.41015625 44.03515625 C-25.21712891 44.01775391 -25.21712891 44.01775391 -24 44 C-20.44535007 44 -17.46487615 44.13378096 -14 45 C-11.9375 47.75 -11.9375 47.75 -11 51 C-11.80345452 54.21381808 -12.65941419 55.65941419 -15 58 C-16.85708618 58.23136902 -16.85708618 58.23136902 -19.13916016 58.20776367 C-19.99410065 58.20503952 -20.84904114 58.20231537 -21.72988892 58.19950867 C-23.12042984 58.18389641 -23.12042984 58.18389641 -24.5390625 58.16796875 C-26.50130693 58.17364991 -28.46354741 58.18086079 -30.42578125 58.18945312 C-33.5201893 58.19361688 -36.61327238 58.18762539 -39.70751953 58.15454102 C-42.69395995 58.127496 -45.67764623 58.14450161 -48.6640625 58.16796875 C-50.03638535 58.13717476 -50.03638535 58.13717476 -51.43643188 58.10575867 C-57.71112619 58.19936819 -60.84186882 59.77676616 -65.30552673 64.1817627 C-66.144291 65.08179016 -66.144291 65.08179016 -67 66 C-67.56425186 66.5777417 -68.12850372 67.1554834 -68.70985413 67.75073242 C-70.15545019 69.24148473 -71.55028623 70.76742406 -72.9375 72.3125 C-73.41767578 72.83650391 -73.89785156 73.36050781 -74.39257812 73.90039062 C-76.9908886 76.74004531 -76.9908886 76.74004531 -79 80 C-79.66 80 -80.32 80 -81 80 C-81.26425781 80.59296875 -81.52851563 81.1859375 -81.80078125 81.796875 C-83.04370425 84.08029054 -84.30401646 85.47426723 -86.1875 87.25 C-88.64637303 89.57642788 -90.88313604 92.00938901 -93.08203125 94.578125 C-98.47135666 100.78605492 -104.4111508 106.45484032 -110.26171875 112.22265625 C-114.78069046 116.70250266 -119.13350175 121.22321003 -123.27050781 126.05664062 C-127.21444996 130.48828651 -131.58143472 134.53860605 -135.859375 138.64453125 C-143.85726055 146.48475238 -148.91488931 153.96564051 -149.2515564 165.48112488 C-149.2627574 167.12824813 -149.2634661 168.77546597 -149.25537109 170.42260742 C-149.26080177 171.78292084 -149.26080177 171.78292084 -149.26634216 173.17071533 C-149.27320155 175.12783495 -149.27574813 177.08497355 -149.27439499 179.04210472 C-149.27342336 182.15070199 -149.28644841 185.25895948 -149.30337524 188.36750793 C-149.34944607 197.20176564 -149.3742306 206.03598748 -149.38085938 214.87036133 C-149.3859023 220.28733754 -149.41029243 225.70395808 -149.44618607 231.12081337 C-149.45591952 233.17265998 -149.45835168 235.22455593 -149.45301437 237.27641869 C-149.41406729 252.98850296 -149.98066306 265.78809412 -161 278 C-162.08419255 279.29094555 -163.16758475 280.58256388 -164.25 281.875 C-166.08539693 284.00942227 -167.99172355 286.02716372 -170 288 C-165.71850343 293.03075847 -161.28854909 297.77827013 -156.50390625 302.3359375 C-155 304 -155 304 -155 306 C-153.8553125 306.3403125 -153.8553125 306.3403125 -152.6875 306.6875 C-149.37083593 308.30726618 -148.77580479 309.81834976 -147 313 C-145.36245402 314.70537333 -143.69667552 316.3544768 -142 318 C-138.72241513 321.22236111 -135.45459725 324.45451114 -132.1875 327.6875 C-130.86202148 328.9878418 -130.86202148 328.9878418 -129.50976562 330.31445312 C-128.67509766 331.14267578 -127.84042969 331.97089844 -126.98046875 332.82421875 C-126.21629639 333.57791748 -125.45212402 334.33161621 -124.66479492 335.1081543 C-123 337 -123 337 -123 339 C-122.46375 339.226875 -121.9275 339.45375 -121.375 339.6875 C-118.24967987 341.4146506 -115.73926741 343.71727716 -113 346 C-109.38509785 348.44880468 -106.3073627 348.50252565 -102 348 C-99.79896891 346.87520838 -97.81901308 345.61094718 -95.796875 344.19140625 C-94 343 -94 343 -91 342 C-91 341.34 -91 340.68 -91 340 C-89.52685547 338.56567383 -89.52685547 338.56567383 -87.4921875 336.89453125 C-83.03593843 333.10387679 -79.08524839 328.98590725 -75.125 324.6875 C-70.63411211 319.85913149 -66.1326861 315.0679745 -61.4375 310.4375 C-37.22041159 286.42121663 -19.520944 258.63962124 -18.6875 223.5625 C-18.83247442 214.22614753 -19.46671314 203.20336757 -26 196 C-29.98165918 192.19514629 -34.0892688 188.55642342 -38.359375 185.078125 C-45.2845134 179.36614954 -45.2845134 179.36614954 -46 174 C-44.96771107 170.62159987 -44.03111143 170.02074096 -41 168 C-38.36565746 168.32126128 -36.37289903 168.81355048 -34 170 C-34 170.66 -34 171.32 -34 172 C-33.44570313 172.24492188 -32.89140625 172.48984375 -32.3203125 172.7421875 C-29.53506049 174.25203792 -27.30507573 176.09167133 -24.875 178.125 C-23.91078125 178.92292969 -22.9465625 179.72085938 -21.953125 180.54296875 C-20.97859375 181.35378906 -20.0040625 182.16460938 -19 183 C-17.21390505 184.48588973 -15.4225821 185.96552783 -13.625 187.4375 C-12.85414063 188.07558594 -12.08328125 188.71367188 -11.2890625 189.37109375 C-6.42687407 192.83104695 -1.84523452 193.78094226 4 193 C7.58552881 191.36312815 8.79315055 190.31027417 11 187 C11.75490014 183.25453392 11.843425 179.61111389 10.04296875 176.171875 C6.40473219 171.68436708 1.71827018 168.19779161 -2.7734375 164.609375 C-6.60979582 161.53348543 -10.33864159 158.33551548 -14.0625 155.125 C-14.71790771 154.56538574 -15.37331543 154.00577148 -16.04858398 153.42919922 C-16.66290283 152.8982666 -17.27722168 152.36733398 -17.91015625 151.8203125 C-18.45808838 151.34867676 -19.00602051 150.87704102 -19.57055664 150.39111328 C-21 149 -21 149 -23 146 C-22.54716981 139.54716981 -22.54716981 139.54716981 -20 137 C-16.43246436 136.54414822 -14.58509824 136.63797047 -11.5 138.546875 C-10.675 139.27390625 -9.85 140.0009375 -9 140.75 C-8.05125 141.57113281 -7.1025 142.39226562 -6.125 143.23828125 C-5.62097656 143.68510254 -5.11695313 144.13192383 -4.59765625 144.59228516 C-2.93670122 146.05577335 -1.2535399 147.48938051 0.4375 148.91796875 C3.41327102 151.43340855 6.36000214 153.98028201 9.29980469 156.53759766 C10.91438084 157.92635572 12.55059966 159.28390909 14.1953125 160.63671875 C20.15011934 165.6943347 24.62909103 170.09090979 26 178 C26.47227172 186.00762944 24.88262155 192.59073667 20 199 C16.50288963 202.84393123 12.09994898 205.83975285 7 207 C4.92067317 207.08028615 2.83851588 207.10103921 0.7578125 207.07421875 C-0.32097168 207.06350342 -1.39975586 207.05278809 -2.51123047 207.04174805 C-3.33252441 207.02797119 -4.15381836 207.01419434 -5 207 C-4.97643433 208.04003174 -4.97643433 208.04003174 -4.95239258 209.10107422 C-4.3076192 242.01444276 -10.22784778 268.05300325 -30 295 C-30.79982117 296.11303557 -31.59929956 297.22631753 -32.3984375 298.33984375 C-35.97903226 303.24680501 -39.18684498 307.26922912 -44 311 C-45.18155153 312.23769437 -46.32983193 313.50826734 -47.4375 314.8125 C-48.035625 315.50859375 -48.63375 316.2046875 -49.25 316.921875 C-50.34105114 318.21749822 -51.42558073 319.51867651 -52.5 320.828125 C-55.74704829 324.74575935 -59.2415402 328.01503036 -63.1171875 331.30859375 C-65.73460534 333.65992554 -67.79513239 336.25881324 -70 339 C-72.3795312 341.49850776 -74.70258268 343.77121745 -77.4375 345.875 C-79.59904555 347.66750119 -80.98722055 349.19711397 -82.6875 351.375 C-86.95856913 356.52247033 -93.32532044 360.84305554 -100 362 C-109.81471131 362.86642169 -117.06257861 361.49253477 -124.6875 355.125 C-126.14360856 353.76972176 -127.57724991 352.39025661 -129 351 C-129.84812256 350.18039795 -129.84812256 350.18039795 -130.71337891 349.34423828 C-132.65099445 347.46737552 -134.57753688 345.57987574 -136.5 343.6875 C-137.13639404 343.06439941 -137.77278809 342.44129883 -138.4284668 341.79931641 C-139.01926025 341.20940918 -139.61005371 340.61950195 -140.21875 340.01171875 C-141.0221582 339.21447388 -141.0221582 339.21447388 -141.84179688 338.40112305 C-143 337 -143 337 -143 335 C-143.66 335 -144.32 335 -145 335 C-146.33984375 333.63671875 -146.33984375 333.63671875 -147.9375 331.6875 C-151.5368989 327.42465257 -155.4186798 323.5384439 -159.44311523 319.68237305 C-160.66490714 318.49090704 -161.83715331 317.24906136 -163 316 C-163 315.34 -163 314.68 -163 314 C-163.66 314 -164.32 314 -165 314 C-166.296875 312.64453125 -166.296875 312.64453125 -167.75 310.8125 C-169.732568 308.41229661 -171.51576175 306.57202749 -173.9375 304.5625 C-177.73626992 301.38393741 -180.86254576 297.82116098 -184 294 C-184.58394531 293.38253906 -185.16789063 292.76507812 -185.76953125 292.12890625 C-187 290 -187 290 -187.171875 287.23828125 C-185.4125663 282.37672488 -182.00478327 279.63489344 -178.25 276.1875 C-168.87008965 267.54144954 -164.12802797 260.14487738 -163.44140625 247.3203125 C-163.39915421 246.54108429 -163.35690216 245.76185608 -163.31336975 244.95901489 C-162.78055194 233.93763056 -162.893707 222.90587816 -162.9375 211.875 C-162.94253015 209.64453227 -162.94709035 207.41406342 -162.95117188 205.18359375 C-162.96204562 199.78903772 -162.97866113 194.39452428 -163 189 C-163.66 188.67 -164.32 188.34 -165 188 C-164.34 188 -163.68 188 -163 188 C-163.01571045 187.25540527 -163.0314209 186.51081055 -163.04760742 185.74365234 C-163.73622911 148.16292264 -163.73622911 148.16292264 -150.63549805 133.32128906 C-148.09486977 130.70356755 -145.50440713 128.15342547 -142.875 125.625 C-141.99457031 124.76261719 -141.11414063 123.90023437 -140.20703125 123.01171875 C-137.81178218 120.66704809 -135.40702782 118.33256405 -133 116 C-129.53662331 112.62131267 -126.3729833 109.11854662 -123.33203125 105.35546875 C-122.67267578 104.68451172 -122.67267578 104.68451172 -122 104 C-121.34 104 -120.68 104 -120 104 C-119.73268066 103.4016333 -119.46536133 102.8032666 -119.18994141 102.18676758 C-117.98063017 99.96440386 -116.83176535 98.68982029 -114.9609375 97.01171875 C-114.09082031 96.19864258 -114.09082031 96.19864258 -113.203125 95.36914062 C-111.98593917 94.24948571 -110.75931299 93.14000617 -109.5234375 92.04101562 C-106.41060748 89.0984185 -105.10674351 87.78392432 -104.51171875 83.4140625 C-104.94744548 80.36746117 -105.52893785 77.62185145 -106.4375 74.6875 C-111.34621406 56.05776142 -109.14500599 36.76856408 -99.8125 19.875 C-90.51492612 4.74171486 -76.55587674 -5.73254822 -59.5 -10.8125 C-38.61261462 -15.79698969 -17.75177325 -12.02252202 0 0 Z " transform="translate(344,349)" style="fill: #2899BE;"></path><path d="M0 0 C0.495 1.485 0.495 1.485 1 3 C1.66 2.67 2.32 2.34 3 2 C3.98280415 3.60194071 4.96111717 5.20663742 5.9375 6.8125 C6.48277344 7.70582031 7.02804687 8.59914063 7.58984375 9.51953125 C10.99445615 15.5082539 10.90472861 22.70432005 9.50390625 29.35546875 C7.65590329 34.75330789 4.68022549 39.40635241 -0.3125 42.375 C-0.869375 42.58125 -1.42625 42.7875 -2 43 C0.31 44.32 2.62 45.64 5 47 C5 47.99 5 48.98 5 50 C5.99 50 6.98 50 8 50 C12.73968303 58.37752092 15.23311725 65.39759582 13 75 C12.87496094 75.62519531 12.74992188 76.25039063 12.62109375 76.89453125 C10.43844191 84.29358373 4.63591715 90.33103982 -2 94 C-5.3125 94.8125 -5.3125 94.8125 -8 95 C-8.99 95.33 -9.98 95.66 -11 96 C-12.76485615 96.06024158 -14.5321119 96.05876688 -16.29760742 96.02172852 C-17.37850143 96.00163223 -18.45939545 95.98153595 -19.57304382 95.96083069 C-20.73874405 95.93379562 -21.90444427 95.90676056 -23.10546875 95.87890625 C-24.29981033 95.85529526 -25.49415192 95.83168427 -26.72468567 95.80735779 C-30.54574348 95.73068089 -34.36660068 95.64667346 -38.1875 95.5625 C-40.77538075 95.50928338 -43.36327135 95.45654295 -45.95117188 95.40429688 C-52.30090583 95.27506022 -58.65049035 95.13980195 -65 95 C-65 92.69 -65 90.38 -65 88 C-65.66 87.67 -66.32 87.34 -67 87 C-66.34 87 -65.68 87 -65 87 C-65 84.69 -65 82.38 -65 80 C-65.66 79.67 -66.32 79.34 -67 79 C-66.34 79 -65.68 79 -65 79 C-65.15597656 78.43410156 -65.31195312 77.86820313 -65.47265625 77.28515625 C-65.66730469 76.55167969 -65.86195313 75.81820312 -66.0625 75.0625 C-66.35833984 73.96615234 -66.35833984 73.96615234 -66.66015625 72.84765625 C-66.77230469 72.23792969 -66.88445313 71.62820313 -67 71 C-66.505 70.505 -66.505 70.505 -66 70 C-65.76712992 68.31816052 -65.58735834 66.6287584 -65.4375 64.9375 C-65.35371094 64.01839844 -65.26992188 63.09929687 -65.18359375 62.15234375 C-65.12300781 61.44207031 -65.06242188 60.73179687 -65 60 C-65.66 59.67 -66.32 59.34 -67 59 C-66.34 59 -65.68 59 -65 59 C-65 58.34 -65 57.68 -65 57 C-65.66 56.67 -66.32 56.34 -67 56 C-66.34 56 -65.68 56 -65 56 C-65 53.36 -65 50.72 -65 48 C-65.66 47.67 -66.32 47.34 -67 47 C-66.34 47 -65.68 47 -65 47 C-65 46.34 -65 45.68 -65 45 C-65.66 44.67 -66.32 44.34 -67 44 C-67 42.35 -67 40.7 -67 39 C-66.67 39 -66.34 39 -66 39 C-65.67 34.38 -65.34 29.76 -65 25 C-65.66 24.67 -66.32 24.34 -67 24 C-66.34 24 -65.68 24 -65 24 C-65 21.69 -65 19.38 -65 17 C-65.66 17 -66.32 17 -67 17 C-67 15.02 -67 13.04 -67 11 C-66.34 11 -65.68 11 -65 11 C-65.34804688 10.45859375 -65.69609375 9.9171875 -66.0546875 9.359375 C-67.28828868 6.28046958 -66.81428573 4.46666674 -66.125 1.25 C-65.92132812 0.26515625 -65.71765625 -0.7196875 -65.5078125 -1.734375 C-65.34023438 -2.48203125 -65.17265625 -3.2296875 -65 -4 C-57.72273955 -4.1687803 -50.44532091 -4.32856474 -43.16772461 -4.48217773 C-40.69339556 -4.53545702 -38.2191095 -4.59077471 -35.74487305 -4.64819336 C-32.18287424 -4.73049793 -28.62078377 -4.8054049 -25.05859375 -4.87890625 C-23.95728622 -4.90594131 -22.8559787 -4.93297638 -21.72129822 -4.96083069 C-6.49142993 -5.25496709 -6.49142993 -5.25496709 0 0 Z " transform="translate(705,512)" style="fill: #003451;"></path><path d="M0 0 C2.11045692 3.88189227 3.53983222 8.01648782 5.0390625 12.16015625 C5.32478119 12.94643906 5.61049988 13.73272186 5.90487671 14.54283142 C6.50623403 16.20069428 7.10627312 17.85903582 7.70507812 19.51782227 C8.62364361 22.05874797 9.54990697 24.59678092 10.4765625 27.13476562 C11.06036886 28.74722465 11.64371792 30.35984933 12.2265625 31.97265625 C12.50464752 32.73208023 12.78273254 33.49150421 13.06924438 34.27394104 C14.15812162 37.30962431 15 39.74897368 15 43 C15.66 43.99 16.32 44.98 17 46 C17.72576645 47.81852424 18.40992948 49.653945 19.0625 51.5 C19.40410156 52.4590625 19.74570312 53.418125 20.09765625 54.40625 C21.31501566 57.90549955 22.19548797 61.1203858 22.7421875 64.77734375 C24.0258289 72.00645962 26.56690728 78.70150903 29.125 85.5625 C30.0486662 88.0622231 30.96630192 90.56403844 31.8828125 93.06640625 C32.49213623 94.7052478 32.49213623 94.7052478 33.11376953 96.37719727 C34 99 34 99 34 101 C31.22813012 101.10787818 28.46044463 101.18723327 25.6875 101.25 C24.90181641 101.28351563 24.11613281 101.31703125 23.30664062 101.3515625 C17.4730158 101.45085824 17.4730158 101.45085824 15.08203125 99.171875 C14.72496094 98.45515625 14.36789062 97.7384375 14 97 C13.34 96.01 12.68 95.02 12 94 C11.4552374 92.36843601 10.9587043 90.72031716 10.5 89.0625 C9.57207538 85.71894554 8.57765848 83.15531696 7 80 C-5.87 80 -18.74 80 -32 80 C-34.75424839 86.84640355 -34.75424839 86.84640355 -35 93 C-35.66 93.99 -36.32 94.98 -37 96 C-37.34675781 96.88042969 -37.69351563 97.76085937 -38.05078125 98.66796875 C-40 101 -40 101 -41.92724609 101.40087891 C-44.36501192 101.49338687 -46.75114924 101.43497703 -49.1875 101.3125 C-50.4549707 101.27866211 -50.4549707 101.27866211 -51.74804688 101.24414062 C-53.83278798 101.18524963 -55.91661804 101.09556798 -58 101 C-58 101.99 -58 102.98 -58 104 C-58.66 104 -59.32 104 -60 104 C-58.48526781 96.01323028 -55.83197448 88.59877122 -53 81 C-52.34 81.33 -51.68 81.66 -51 82 C-51.20625 81.38125 -51.4125 80.7625 -51.625 80.125 C-51.74875 79.42375 -51.8725 78.7225 -52 78 C-51.01 77.01 -51.01 77.01 -50 76 C-49.67 75.01 -49.34 74.02 -49 73 C-48.67 72.01 -48.34 71.02 -48 70 C-47.67 70.33 -47.34 70.66 -47 71 C-46.87882813 70.16855469 -46.75765625 69.33710937 -46.6328125 68.48046875 C-46.46523438 67.39378906 -46.29765625 66.30710937 -46.125 65.1875 C-45.88136719 63.56908203 -45.88136719 63.56908203 -45.6328125 61.91796875 C-45 59 -45 59 -43 56 C-42.505 56.495 -42.505 56.495 -42 57 C-42.07734375 55.49759766 -42.07734375 55.49759766 -42.15625 53.96484375 C-41.98680181 49.66509596 -41.02687807 46.57055493 -39.5 42.5625 C-39.14228516 41.60827148 -39.14228516 41.60827148 -38.77734375 40.63476562 C-38.19509076 39.08597268 -37.59898931 37.54239747 -37 36 C-36.34 36.33 -35.68 36.66 -35 37 C-34.67 36.34 -34.34 35.68 -34 35 C-34.66 35 -35.32 35 -36 35 C-35.67 34.38125 -35.34 33.7625 -35 33.125 C-33.85806765 31.08981656 -33.85806765 31.08981656 -34 29 C-33.71125 28.29875 -33.4225 27.5975 -33.125 26.875 C-31.7259782 23.29972208 -30.88630848 19.73515715 -30 16 C-29.34 16.33 -28.68 16.66 -28 17 C-27.47599609 15.50146484 -27.47599609 15.50146484 -26.94140625 13.97265625 C-26.48192081 12.66921795 -26.02227721 11.3658354 -25.5625 10.0625 C-25.33240234 9.40314453 -25.10230469 8.74378906 -24.86523438 8.06445312 C-23.11328125 3.11328125 -23.11328125 3.11328125 -22 2 C-20.36527118 1.91299658 -18.72685945 1.89298937 -17.08984375 1.90234375 C-15.60581055 1.90717773 -15.60581055 1.90717773 -14.09179688 1.91210938 C-13.05087891 1.92048828 -12.00996094 1.92886719 -10.9375 1.9375 C-9.37032227 1.94426758 -9.37032227 1.94426758 -7.77148438 1.95117188 C-5.1809334 1.96300087 -2.59049441 1.97948311 0 2 C0 1.34 0 0.68 0 0 Z " transform="translate(582,506)" style="fill: #003350;"></path><path d="M0 0 C1.64630328 0.14042877 3.29204179 0.28749329 4.9375 0.4375 C6.31228516 0.55931641 6.31228516 0.55931641 7.71484375 0.68359375 C10 1 10 1 11 2 C12.5159375 2.1546875 12.5159375 2.1546875 14.0625 2.3125 C18.53727827 3.09381049 22.18518991 4.53433007 26 7 C26.495 7.99 26.495 7.99 27 9 C27.61617188 9.27328125 28.23234375 9.5465625 28.8671875 9.828125 C33.79954149 12.53820961 36.29226978 19.29501355 38.375 24.3125 C38.99946414 26.99769582 39.23529114 29.25493668 39 32 C38 33 38 33 36.14233398 33.11352539 C34.95619507 33.10567017 34.95619507 33.10567017 33.74609375 33.09765625 C32.89208984 33.09443359 32.03808594 33.09121094 31.15820312 33.08789062 C29.81145508 33.07532227 29.81145508 33.07532227 28.4375 33.0625 C27.53580078 33.05798828 26.63410156 33.05347656 25.70507812 33.04882812 C23.46998686 33.03700225 21.23502563 33.0205222 19 33 C19 32.01 19 31.02 19 30 C15.79678271 25.19517406 12.14214401 21.6451663 7 19 C4.02401322 18.35629538 4.02401322 18.35629538 0.9375 18.1875 C-0.08472656 18.09855469 -1.10695313 18.00960937 -2.16015625 17.91796875 C-5.11241348 18.00324716 -6.5086 18.49974391 -9 20 C-13.77777778 22 -13.77777778 22 -15 22 C-17.67907705 27.88148263 -17.67907705 27.88148263 -17 34 C-16.67 34.99 -16.34 35.98 -16 37 C-15.01 37 -14.02 37 -13 37 C-11.6078125 37.9590625 -11.6078125 37.9590625 -10.1875 38.9375 C-6.92171352 41.05065596 -4.80175493 41.55793547 -1 42 C-0.67 42.33 -0.34 42.66 0 43 C1.03125 43.144375 2.0625 43.28875 3.125 43.4375 C6.90290729 43.9859059 10.3506626 44.89831324 14 46 C14.92232422 46.18949219 14.92232422 46.18949219 15.86328125 46.3828125 C18.64578069 47.18653263 20.96626011 48.4758744 23.5 49.875 C24.90765625 50.64457031 24.90765625 50.64457031 26.34375 51.4296875 C28.71802843 52.83330504 30.91216595 54.19776589 33 56 C33 56.66 33 57.32 33 58 C33.66 58 34.32 58 35 58 C35.81837442 59.41328129 36.62946219 60.83078346 37.4375 62.25 C37.88996094 63.03890625 38.34242188 63.8278125 38.80859375 64.640625 C42.08071798 71.1205038 41.9000867 78.75161749 39.875 85.625 C38.1440088 90.24921935 35.58720151 94.57160689 32 98 C31.01 98 30.02 98 29 98 C27.25036209 98.97202106 25.50240458 99.94840108 23.78515625 100.9765625 C21.60505169 102.22642551 19.3589623 103.14219553 17 104 C17 104.66 17 105.32 17 106 C14.06822882 106.84146888 11.4565083 107.12843601 8.41015625 107.1328125 C7.10981445 107.13474609 7.10981445 107.13474609 5.78320312 107.13671875 C4.43645508 107.13091797 4.43645508 107.13091797 3.0625 107.125 C2.16853516 107.12886719 1.27457031 107.13273438 0.35351562 107.13671875 C-3.89142924 107.13041594 -7.86713147 107.08078698 -12 106 C-12.66257812 105.86078125 -13.32515625 105.7215625 -14.0078125 105.578125 C-23.37640072 102.85939744 -31.06290248 97.44643684 -36.03125 89.0703125 C-37.46080681 86.01521125 -37.79041227 83.35340365 -38 80 C-38.33 80 -38.66 80 -39 80 C-39 78.35 -39 76.7 -39 75 C-38.01 75.33 -37.02 75.66 -36 76 C-30.9030193 76.14827028 -30.9030193 76.14827028 -25.8046875 76.16601562 C-23.6875 76.23046875 -23.6875 76.23046875 -20 77 C-18.140625 79.87890625 -18.140625 79.87890625 -17 83 C-13.46370914 87.32213327 -10.53836044 89.09372284 -5 90 C-2.6107605 89.26878594 -2.6107605 89.26878594 -1 88 C-0.67 88.66 -0.34 89.32 0 90 C4.12973628 89.43260132 4.12973628 89.43260132 8 88 C8.598125 88.226875 9.19625 88.45375 9.8125 88.6875 C12.20508312 89.27270656 12.20508312 89.27270656 14.625 87.3125 C18.21172559 83.82016193 18.86999468 82.15147573 19.4375 77.125 C19.35452704 73.94832113 18.76845573 72.13452811 16.8125 69.625 C14.13655647 67.12745271 12.46168672 66.00206721 9 65 C8.01 64.67 7.02 64.34 6 64 C3.7741841 63.46502806 1.54455998 62.94579089 -0.6875 62.4375 C-1.86699219 62.16808594 -3.04648437 61.89867187 -4.26171875 61.62109375 C-5.16535156 61.41613281 -6.06898438 61.21117187 -7 61 C-7 60.34 -7 59.68 -7 59 C-7.598125 59.20625 -8.19625 59.4125 -8.8125 59.625 C-11 60 -11 60 -14 58 C-13.67 57.67 -13.34 57.34 -13 57 C-13.58007812 56.89042969 -14.16015625 56.78085937 -14.7578125 56.66796875 C-23.89258412 54.81388144 -29.53145011 51.69543361 -35 44 C-36.78726183 40.32282955 -37.40089494 36.99841324 -37.75 32.9375 C-37.84796875 31.91527344 -37.9459375 30.89304687 -38.046875 29.83984375 C-37.998705 26.92154447 -37.5255241 25.44670596 -36 23 C-35.67 23.33 -35.34 23.66 -35 24 C-34.67 23.34 -34.34 22.68 -34 22 C-34.66 22 -35.32 22 -36 22 C-35.5083439 17.42759827 -33.83691671 15.21745617 -30.75 11.875 C-29.59757812 10.60269531 -29.59757812 10.60269531 -28.421875 9.3046875 C-25.20408929 6.2426011 -22.20438235 4.40146078 -18 3 C-17.01 2.62875 -16.02 2.2575 -15 1.875 C-10.0266507 0.42042902 -5.05356147 1.32375488 0 2 C0 1.34 0 0.68 0 0 Z " transform="translate(466,504)" style="fill: #013450;"></path><path d="M0 0 C25.74 0 51.48 0 78 0 C78 5.28 78 10.56 78 16 C68.76 16.33 59.52 16.66 50 17 C49.67 44.72 49.34 72.44 49 101 C39.1 101.495 39.1 101.495 29 102 C29.33 74.28 29.66 46.56 30 18 C29.34 18 28.68 18 28 18 C28 17.34 28 16.68 28 16 C18.76 16 9.52 16 0 16 C0 10.72 0 5.44 0 0 Z " transform="translate(784,508)" style="fill: #003452;"></path><path d="M0 0 C5.28 0 10.56 0 16 0 C16 32.67 16 65.34 16 99 C10.72 99 5.44 99 0 99 C0 66.33 0 33.66 0 0 Z " transform="translate(744,508)" style="fill: #003553;"></path><path d="M0 0 C4.063125 -0.04125 8.12625 -0.0825 12.3125 -0.125 C13.59036377 -0.14320801 14.86822754 -0.16141602 16.18481445 -0.18017578 C17.1924585 -0.1851709 18.20010254 -0.19016602 19.23828125 -0.1953125 C20.26993408 -0.20578613 21.30158691 -0.21625977 22.36450195 -0.22705078 C25 0 25 0 28 2 C28.639375 2.37898437 29.27875 2.75796875 29.9375 3.1484375 C37.24797844 7.49595687 37.24797844 7.49595687 39 11 C40.28267376 16.22936224 40.19706471 20.05660441 38 25 C36.27422685 26.53898359 34.53201236 27.75492802 32.55859375 28.95703125 C30.83005345 29.92769858 30.83005345 29.92769858 30 32 C20.1 32 10.2 32 0 32 C0.66 31.34 1.32 30.68 2 30 C1.67 30 1.34 30 1 30 C0.67 20.1 0.34 10.2 0 0 Z " transform="translate(658,562)" style="fill: #000102;"></path><path d="M0 0 C3.815625 -0.061875 7.63125 -0.12375 11.5625 -0.1875 C13.34636108 -0.22846802 13.34636108 -0.22846802 15.16625977 -0.27026367 C22.18090334 -0.32518091 27.1481242 0.10511198 32.88671875 4.41796875 C35.09348998 7.55390681 34.99361079 11.26869999 35 15 C34.25018674 18.97401027 33.50088532 20.52480111 30.5625 23.3125 C26.59437778 25.92565366 23.8742601 26.09070224 19.23828125 25.87890625 C17.72681519 25.81425171 17.72681519 25.81425171 16.18481445 25.74829102 C14.2680188 25.65632446 14.2680188 25.65632446 12.3125 25.5625 C8.249375 25.376875 4.18625 25.19125 0 25 C0 16.75 0 8.5 0 0 Z " transform="translate(659,523)" style="fill: #000001;"></path><path d="M0 0 C0.66 0 1.32 0 2 0 C4.00209777 6.04790788 5.99496933 12.09879867 7.98144531 18.15185547 C8.65835737 20.21082334 9.33738118 22.26909818 10.01855469 24.32666016 C10.99709739 27.28368498 11.96802717 30.24311609 12.9375 33.203125 C13.24373291 34.12305237 13.54996582 35.04297974 13.86547852 35.99078369 C14.14576904 36.8513739 14.42605957 37.71196411 14.71484375 38.59863281 C14.96355225 39.35364075 15.21226074 40.10864868 15.46850586 40.88653564 C16 43 16 43 16 47 C5.77 47 -4.46 47 -15 47 C-15.33 45.68 -15.66 44.36 -16 43 C-15.01 42.34 -14.02 41.68 -13 41 C-11.9878972 38.96006157 -11.9878972 38.96006157 -11.3125 36.625 C-11.06113281 35.85414063 -10.80976562 35.08328125 -10.55078125 34.2890625 C-9.84404155 31.74423113 -9.84404155 31.74423113 -10 28 C-9.34 28 -8.68 28 -8 28 C-8.04125 26.906875 -8.0825 25.81375 -8.125 24.6875 C-8 21 -8 21 -6 18 C-5.63837971 16.67405895 -5.30271961 15.34061543 -5 14 C-4.67 13.34 -4.34 12.68 -4 12 C-3.65657551 10.66923011 -3.32380126 9.33568021 -3 8 C-2 5 -2 5 0 4 C0 2.68 0 1.36 0 0 Z " transform="translate(570,525)" style="fill: #000000;"></path><path d="M0 0 C0.08847317 3.45816686 0.14087725 6.91603579 0.1875 10.375 C0.21263672 11.34050781 0.23777344 12.30601562 0.26367188 13.30078125 C0.40414488 27.25443303 -4.63562146 36.00397885 -14.00390625 46.17578125 C-16.41588567 48.6085985 -18.85635961 50.88149668 -21.5 53.0625 C-23.29831565 54.95887701 -23.29831565 54.95887701 -22.90332031 57.78320312 C-21.76660537 61.83113719 -20.06219767 63.49685693 -17.046875 66.40625 C-16.30102142 67.13793396 -16.30102142 67.13793396 -15.5401001 67.88439941 C-13.95483819 69.43523012 -12.35343105 70.96798267 -10.75 72.5 C-9.16440247 74.03530715 -7.58242926 75.57420913 -6.00274658 77.11560059 C-4.56243773 78.51775518 -3.11301068 79.91052557 -1.66308594 81.30273438 C1.08742646 84.08854854 3.51971748 86.97409719 6 90 C7.64474814 91.68830066 9.31098267 93.35598783 11 95 C20.69443286 104.55415972 20.69443286 104.55415972 24.5 109 C35.72071355 122.37233901 35.72071355 122.37233901 51.49609375 128.3984375 C62.01239982 128.68777502 68.04548194 126.07993384 76.08203125 119.5234375 C78 118 78 118 80 117 C77.42435327 123.16799612 71.17918602 127.29965081 65.1875 129.9375 C58.41055639 132.09748203 50.86372465 132.08755893 44.25 129.4375 C39.49423434 126.97060551 35.81384482 123.72674232 32 120 C31.43458496 119.45359863 30.86916992 118.90719727 30.28662109 118.34423828 C28.34900555 116.46737552 26.42246312 114.57987574 24.5 112.6875 C23.86360596 112.06439941 23.22721191 111.44129883 22.5715332 110.79931641 C21.98073975 110.20940918 21.38994629 109.61950195 20.78125 109.01171875 C19.9778418 108.21447388 19.9778418 108.21447388 19.15820312 107.40112305 C18 106 18 106 18 104 C17.34 104 16.68 104 16 104 C14.66015625 102.63671875 14.66015625 102.63671875 13.0625 100.6875 C9.4631011 96.42465257 5.5813202 92.5384439 1.55688477 88.68237305 C0.33509286 87.49090704 -0.83715331 86.24906136 -2 85 C-2 84.34 -2 83.68 -2 83 C-2.66 83 -3.32 83 -4 83 C-5.296875 81.64453125 -5.296875 81.64453125 -6.75 79.8125 C-8.732568 77.41229661 -10.51576175 75.57202749 -12.9375 73.5625 C-16.73626992 70.38393741 -19.86254576 66.82116098 -23 63 C-23.58394531 62.38253906 -24.16789063 61.76507812 -24.76953125 61.12890625 C-26 59 -26 59 -26.171875 56.23828125 C-24.4125663 51.37672488 -21.00478327 48.63489344 -17.25 45.1875 C-9.44708139 37.99506153 -3.25774507 30.83224364 -2.68359375 19.84765625 C-2.64169922 19.07099609 -2.59980469 18.29433594 -2.55664062 17.49414062 C-2.51732422 16.69169922 -2.47800781 15.88925781 -2.4375 15.0625 C-2.39431641 14.26392578 -2.35113281 13.46535156 -2.30664062 12.64257812 C-2.13832501 9.41786463 -1.99735451 6.22604214 -2.03515625 2.99609375 C-1.98238748 0 -1.98238748 0 0 0 Z " transform="translate(183,580)" style="fill: #25718F;"></path><path d="M0 0 C0.99 0 1.98 0 3 0 C3 27.39 3 54.78 3 83 C8.28 83 13.56 83 19 83 C19 55.61 19 28.22 19 0 C19.99 0.66 20.98 1.32 22 2 C22.25653217 4.69526732 22.31928787 7.15380051 22.2487793 9.84619141 C22.23946381 10.65602982 22.23014832 11.46586823 22.22055054 12.30024719 C22.18609938 14.98443836 22.1302202 17.66774146 22.07421875 20.3515625 C22.0461947 22.20956517 22.01950334 24.06758838 21.99409485 25.92562866 C21.92354618 30.82169756 21.83484277 35.71727752 21.74243164 40.61297607 C21.65136434 45.60639877 21.57736417 50.60007066 21.50195312 55.59375 C21.35139476 65.39617322 21.180092 75.19807484 21 85 C14.4 85.33 7.8 85.66 1 86 C1.33 58.28 1.66 30.56 2 2 C1.34 2 0.68 2 0 2 C0 1.34 0 0.68 0 0 Z " transform="translate(812,524)" style="fill: #071C2B;"></path><path d="M0 0 C0.66 0 1.32 0 2 0 C2 33.99 2 67.98 2 103 C7.28 103 12.56 103 18 103 C18 70.33 18 37.66 18 4 C18.66 4 19.32 4 20 4 C20 37.33 20 70.66 20 105 C10.595 105.495 10.595 105.495 1 106 C0 105 0 105 -0.12304783 103.23712826 C-0.12212604 102.46374394 -0.12120424 101.69035963 -0.12025452 100.89353943 C-0.12162918 100.00867859 -0.12300385 99.12381775 -0.12442017 98.21214294 C-0.12082489 97.23391068 -0.11722961 96.25567841 -0.11352539 95.24780273 C-0.11367142 94.2235318 -0.11381744 93.19926086 -0.1139679 92.14395142 C-0.11326828 88.74047771 -0.10547363 85.33705796 -0.09765625 81.93359375 C-0.09579224 79.58089732 -0.09436826 77.2282005 -0.09336853 74.87550354 C-0.08954199 68.66943295 -0.07971055 62.4633856 -0.06866455 56.25732422 C-0.05845334 49.93001622 -0.05387154 43.60270448 -0.04882812 37.27539062 C-0.0380884 24.85025018 -0.02101036 12.42512702 0 0 Z " transform="translate(742,504)" style="fill: #081B29;"></path><path d="M0 0 C0.66 0.33 1.32 0.66 2 1 C-2.43501016 6.2335972 -7.09278129 11.13690916 -11.984375 15.9453125 C-14.15809591 18.09034949 -14.15809591 18.09034949 -16.4375 21.0625 C-16.953125 21.701875 -17.46875 22.34125 -18 23 C-18.66 23 -19.32 23 -20 23 C-20.226875 23.66 -20.45375 24.32 -20.6875 25 C-21.82457437 27.59902714 -23.02033745 29.50778637 -24.625 31.8125 C-27.38782528 36.06611663 -27.44555369 39.00979862 -27 44 C-28.485 44.495 -28.485 44.495 -30 45 C-30 68.76 -30 92.52 -30 117 C-32.21657294 112.56685411 -32.25818442 109.31928506 -32.1953125 104.515625 C-32.1924826 103.70003113 -32.18965271 102.88443726 -32.18673706 102.04412842 C-32.17556558 99.44593472 -32.15046675 96.84808905 -32.125 94.25 C-32.11496627 92.48568207 -32.10584111 90.72135872 -32.09765625 88.95703125 C-32.07563619 84.63788727 -32.04112733 80.31900259 -32 76 C-32.66 75.67 -33.32 75.34 -34 75 C-33.34 75 -32.68 75 -32 75 C-32.01571045 74.25540527 -32.0314209 73.51081055 -32.04760742 72.74365234 C-32.73802957 35.06466461 -32.73802957 35.06466461 -19.5871582 20.2890625 C-16.9982306 17.64246138 -14.36213038 15.05986442 -11.6875 12.5 C-9.89774306 10.76247084 -8.10988961 9.02297818 -6.32421875 7.28125 C-5.54135498 6.52908203 -4.75849121 5.77691406 -3.9519043 5.00195312 C-1.83898648 2.95747614 -1.83898648 2.95747614 0 0 Z " transform="translate(213,462)" style="fill: #287085;"></path><path d="M0 0 C4.24875 -0.103125 8.4975 -0.20625 12.875 -0.3125 C14.85282471 -0.38078003 14.85282471 -0.38078003 16.87060547 -0.45043945 C24.33597974 -0.53745502 31.05846254 0.05128222 37 5 C39.24738914 9.57036508 39.32901703 12.98249028 39 18 C38.34 18.66 37.68 19.32 37 20 C36.66468585 18.04200486 36.33180857 16.08359226 36 14.125 C35.814375 13.03445313 35.62875 11.94390625 35.4375 10.8203125 C35 8 35 8 35 6 C27.70389606 3.13833147 21.23291695 2.478223 13.4375 2.3125 C9.663125 2.209375 5.88875 2.10625 2 2 C2 10.25 2 18.5 2 27 C10.25 27 18.5 27 27 27 C27 27.66 27 28.32 27 29 C18.09 29 9.18 29 0 29 C0 19.43 0 9.86 0 0 Z " transform="translate(657,521)" style="fill: #071B29;"></path><path d="M0 0 C0 0.33 0 0.66 0 1 C-1.11375 1.13535156 -2.2275 1.27070313 -3.375 1.41015625 C-18.24470303 3.42449661 -31.74685185 7.58292913 -43 18 C-43.68320312 18.60457031 -44.36640625 19.20914062 -45.0703125 19.83203125 C-56.64981751 30.64103688 -63.41298774 45.68639398 -64.16796875 61.5234375 C-64.21689542 71.17177759 -63.42087992 80.45980628 -62 90 C-62.66 89.67 -63.32 89.34 -64 89 C-69.47056644 71.30110858 -67.57807653 51.4645004 -59.5 34.9296875 C-50.24234882 18.17162448 -35.82272358 6.76681704 -17.5 1.125 C-11.6764448 -0.32876341 -5.96566126 -0.28110446 0 0 Z " transform="translate(302,337)" style="fill: #237C90;"></path><path d="M0 0 C6.03810053 0.47739993 10.52186603 1.77101662 15.875 4.5625 C16.57044922 4.92110107 17.26589844 5.27970215 17.98242188 5.64916992 C34.16540875 14.23839914 43.84918681 27.86828177 50.06640625 44.92578125 C53.38165141 56.50511581 54.53384017 70.37629433 51 82 C50.67 82 50.34 82 50 82 C50.02618408 81.33693848 50.05236816 80.67387695 50.0793457 79.99072266 C50.83910337 57.72116769 48.70277678 38.10020443 33.5625 20.5625 C24.15805944 10.76224965 12.96999168 4.8909975 0 1 C0 0.67 0 0.34 0 0 Z " transform="translate(319,339)" style="fill: #257D92;"></path><path d="M0 0 C0.66 0 1.32 0 2 0 C4.00209777 6.04790788 5.99496933 12.09879867 7.98144531 18.15185547 C8.65835737 20.21082334 9.33738118 22.26909818 10.01855469 24.32666016 C10.99709739 27.28368498 11.96802717 30.24311609 12.9375 33.203125 C13.24373291 34.12305237 13.54996582 35.04297974 13.86547852 35.99078369 C14.14576904 36.8513739 14.42605957 37.71196411 14.71484375 38.59863281 C14.96355225 39.35364075 15.21226074 40.10864868 15.46850586 40.88653564 C16 43 16 43 16 47 C5.77 47 -4.46 47 -15 47 C-15.33 45.68 -15.66 44.36 -16 43 C-15.34 43.33 -14.68 43.66 -14 44 C-11.89625004 44.15441209 -9.78804881 44.24992639 -7.6796875 44.31640625 C-5.79443359 44.37924805 -5.79443359 44.37924805 -3.87109375 44.44335938 C-2.55238281 44.48267578 -1.23367188 44.52199219 0.125 44.5625 C1.46485751 44.60569512 2.80470156 44.64930973 4.14453125 44.69335938 C7.42957815 44.79970981 10.71470281 44.90173808 14 45 C13.61142822 43.8855249 13.22285645 42.7710498 12.82250977 41.62280273 C11.37549208 37.46713757 9.93688422 33.3086014 8.50073242 29.14916992 C7.87930769 27.3531344 7.25563867 25.55787369 6.62963867 23.76342773 C5.72756968 21.1763484 4.83374556 18.58654273 3.94140625 15.99609375 C3.6622084 15.20101913 3.38301056 14.40594452 3.09535217 13.58677673 C1.53925638 9.04003064 0.51453273 4.78098247 0 0 Z " transform="translate(570,525)" style="fill: #051B2B;"></path><path d="M0 0 C0.66 0.33 1.32 0.66 2 1 C2 1.66 2 2.32 2 3 C2.88869781 2.98747192 3.77739563 2.97494385 4.69302368 2.96203613 C13.07935321 2.84388769 21.46568828 2.72614296 29.8520298 2.60884857 C34.16323787 2.54853631 38.47444364 2.48806946 42.78564453 2.42724609 C46.94830195 2.36852416 51.11096494 2.3102125 55.27363205 2.25218201 C56.85959451 2.2300011 58.44555493 2.20767384 60.03151321 2.18519592 C62.25749443 2.15367222 64.48348241 2.12267488 66.70947266 2.09179688 C67.97522125 2.07403198 69.24096985 2.05626709 70.54507446 2.03796387 C73.69709308 2.00332844 76.84782905 1.99289209 80 2 C80 2.66 80 3.32 80 4 C54.26 4 28.52 4 2 4 C2 9.28 2 14.56 2 20 C3.32 20 4.64 20 6 20 C6 20.66 6 21.32 6 22 C4.02 22 2.04 22 0 22 C-0.86332757 17.53262243 -1.13467581 13.29763063 -1.125 8.75 C-1.12757813 7.52796875 -1.13015625 6.3059375 -1.1328125 5.046875 C-1 2 -1 2 0 0 Z " transform="translate(782,504)" style="fill: #000C19;"></path><path d="M0 0 C0 3 0 3 -1.7578125 5.015625 C-2.53898437 5.75296875 -3.32015625 6.4903125 -4.125 7.25 C-7.06770748 10.08148704 -9.84647422 12.90569192 -12.4375 16.0625 C-13.283125 17.031875 -14.12875 18.00125 -15 19 C-15.66 19 -16.32 19 -17 19 C-17.24983643 19.57363281 -17.49967285 20.14726563 -17.75708008 20.73828125 C-20.18666195 25.15934715 -24.13860792 28.46522444 -27.6875 32 C-28.47833984 32.80695312 -29.26917969 33.61390625 -30.08398438 34.4453125 C-41.18068597 45.55117735 -41.18068597 45.55117735 -49.375 45.625 C-56.33900518 45.38519266 -60.73264698 41.93915908 -65.75 37.42578125 C-67 36 -67 36 -67 34 C-63.09120039 35.65372291 -60.23788375 38.30176354 -57 41 C-53.38509785 43.44880468 -50.3073627 43.50252565 -46 43 C-43.79896891 41.87520838 -41.81901308 40.61094718 -39.796875 39.19140625 C-38 38 -38 38 -35 37 C-35 36.34 -35 35.68 -35 35 C-33.5246582 33.56347656 -33.5246582 33.56347656 -31.48828125 31.890625 C-27.05547203 28.11976376 -23.12605734 24.02666225 -19.1875 19.75 C-12.92692145 13.02031853 -6.56168422 6.43656736 0 0 Z " transform="translate(288,654)" style="fill: #216F8B;"></path><path d="M0 0 C0.33 0 0.66 0 1 0 C1 32.67 1 65.34 1 99 C0.67 99 0.34 99 0 99 C0 96.69 0 94.38 0 92 C-0.66 91.67 -1.32 91.34 -2 91 C-1.34 91 -0.68 91 0 91 C0 88.69 0 86.38 0 84 C-0.66 83.67 -1.32 83.34 -2 83 C-1.34 83 -0.68 83 0 83 C-0.15597656 82.43410156 -0.31195312 81.86820313 -0.47265625 81.28515625 C-0.66730469 80.55167969 -0.86195313 79.81820312 -1.0625 79.0625 C-1.35833984 77.96615234 -1.35833984 77.96615234 -1.66015625 76.84765625 C-1.77230469 76.23792969 -1.88445313 75.62820313 -2 75 C-1.505 74.505 -1.505 74.505 -1 74 C-0.76712992 72.31816052 -0.58735834 70.6287584 -0.4375 68.9375 C-0.35371094 68.01839844 -0.26992188 67.09929687 -0.18359375 66.15234375 C-0.12300781 65.44207031 -0.06242188 64.73179687 0 64 C-0.66 63.67 -1.32 63.34 -2 63 C-1.34 63 -0.68 63 0 63 C0 62.34 0 61.68 0 61 C-0.66 60.67 -1.32 60.34 -2 60 C-1.34 60 -0.68 60 0 60 C0 57.36 0 54.72 0 52 C-0.66 51.67 -1.32 51.34 -2 51 C-1.34 51 -0.68 51 0 51 C0 50.34 0 49.68 0 49 C-0.66 48.67 -1.32 48.34 -2 48 C-2 46.35 -2 44.7 -2 43 C-1.67 43 -1.34 43 -1 43 C-0.67 38.38 -0.34 33.76 0 29 C-0.66 28.67 -1.32 28.34 -2 28 C-1.34 28 -0.68 28 0 28 C0 25.69 0 23.38 0 21 C-0.66 21 -1.32 21 -2 21 C-2 19.02 -2 17.04 -2 15 C-1.34 15 -0.68 15 0 15 C-0.34804688 14.45859375 -0.69609375 13.9171875 -1.0546875 13.359375 C-2.28828868 10.28046958 -1.81428573 8.46666674 -1.125 5.25 C-0.92132812 4.26515625 -0.71765625 3.2803125 -0.5078125 2.265625 C-0.34023438 1.51796875 -0.17265625 0.7703125 0 0 Z " transform="translate(640,508)" style="fill: #002A40;"></path><path d="M0 0 C0.51304687 0.69480469 1.02609375 1.38960938 1.5546875 2.10546875 C4.47256953 5.55938343 7.68829779 8.38910508 11.125 11.3125 C11.78935059 11.88282959 12.45370117 12.45315918 13.13818359 13.04077148 C19.18182267 18.20630621 25.35016246 23.20232718 31.66015625 28.0390625 C35.51890226 31.27293645 36.78382534 34.51379924 37.5 39.4375 C36.85316801 44.04617796 35.23489735 46.70551244 32 50 C27.64380576 52.93569612 24.21422708 53.57935856 19 53 C16.7890625 51.4765625 16.7890625 51.4765625 15 50 C15.80824219 50.03480469 16.61648438 50.06960938 17.44921875 50.10546875 C19.05216797 50.14607422 19.05216797 50.14607422 20.6875 50.1875 C22.27111328 50.23970703 22.27111328 50.23970703 23.88671875 50.29296875 C27.41836599 49.96063055 29.18255429 49.11678496 32 47 C34.70763895 42.93854157 34.87209759 39.76853363 34 35 C31.04474095 29.35485209 25.09597522 25.49953943 20.2265625 21.609375 C16.39020418 18.53348543 12.66135841 15.33551548 8.9375 12.125 C8.28209229 11.56538574 7.62668457 11.00577148 6.95141602 10.42919922 C6.33709717 9.8982666 5.72277832 9.36733398 5.08984375 8.8203125 C4.54191162 8.34867676 3.99397949 7.87704102 3.42944336 7.39111328 C2 6 2 6 0 3 C0 2.01 0 1.02 0 0 Z " transform="translate(321,492)" style="fill: #27879D;"></path><path d="M0 0 C1 3 1 3 0.03466797 5.31811523 C-0.72885986 6.6746521 -0.72885986 6.6746521 -1.5078125 8.05859375 C-2.0762085 9.0748584 -2.64460449 10.09112305 -3.23022461 11.13818359 C-4.16813843 12.77134521 -4.16813843 12.77134521 -5.125 14.4375 C-5.75865479 15.55463379 -6.39230957 16.67176758 -7.04516602 17.82275391 C-13.32084687 28.77227827 -20.14214788 39.33624618 -27.20898438 49.78808594 C-31.06089594 55.48988322 -33.83959341 60.16649455 -35 67 C-35.66 66.34 -36.32 65.68 -37 65 C-36.71509228 60.33954832 -35.26391055 57.32717099 -32.71875 53.47265625 C-32.04610107 52.44092285 -31.37345215 51.40918945 -30.68041992 50.34619141 C-29.96088135 49.26257324 -29.24134277 48.17895508 -28.5 47.0625 C-27.38989585 45.36438417 -26.28381804 43.66369356 -25.17802429 41.96276855 C-24.09798949 40.30188443 -23.01508018 38.64287068 -21.93212891 36.98388672 C-18.11598839 31.09042331 -14.53226199 25.06712632 -11 19 C-10.52626953 18.18644043 -10.05253906 17.37288086 -9.56445312 16.53466797 C-6.3637621 11.03032701 -3.17647246 5.51834937 0 0 Z " transform="translate(309,469)" style="fill: #26859B;"></path><path d="M0 0 C2.74984013 2.74984013 3.57662714 5.99601518 4.8203125 9.59765625 C5.21559647 10.72185219 5.21559647 10.72185219 5.61886597 11.86875916 C6.17453403 13.45233996 6.72745467 15.03688709 7.27783203 16.62231445 C8.12350533 19.05819475 8.97699269 21.49122129 9.83203125 23.92382812 C10.37024745 25.46077797 10.90802307 26.99788218 11.4453125 28.53515625 C11.70152374 29.26742935 11.95773499 29.99970245 12.22171021 30.75416565 C14 35.88209771 14 35.88209771 14 37 C3.605 37.495 3.605 37.495 -7 38 C-7.66 36.02 -8.32 34.04 -9 32 C-8.34 31.67 -7.68 31.34 -7 31 C-6.67 31.99 -6.34 32.98 -6 34 C-0.39 34.33 5.22 34.66 11 35 C9.80890625 31.83857422 9.80890625 31.83857422 8.59375 28.61328125 C7.82730254 26.56200313 7.06366706 24.50969892 6.30029297 22.45727539 C5.76969522 21.03527989 5.23619681 19.61436313 4.69970703 18.19458008 C3.92749699 16.14944123 3.16592319 14.10060474 2.40625 12.05078125 C1.71499023 10.20480347 1.71499023 10.20480347 1.00976562 8.3215332 C0.09299454 5.30589718 -0.22754338 3.11579285 0 0 Z " transform="translate(605,572)" style="fill: #071B29;"></path><path d="M0 0 C2.4375 0.6875 2.4375 0.6875 4.4375 1.6875 C4.4375 2.3475 4.4375 3.0075 4.4375 3.6875 C4.99179687 3.93242188 5.54609375 4.17734375 6.1171875 4.4296875 C8.90243951 5.93953792 11.13242427 7.77917133 13.5625 9.8125 C18.80588618 14.16669822 24.10539418 18.44263485 29.4375 22.6875 C25.86566655 22.6875 25.32302702 22.07778688 22.625 19.875 C21.83996094 19.2459375 21.05492187 18.616875 20.24609375 17.96875 C19.31925781 17.2159375 18.39242188 16.463125 17.4375 15.6875 C15.02814885 13.7407167 12.60935567 11.80619235 10.1875 9.875 C9.59735107 9.39506592 9.00720215 8.91513184 8.39916992 8.4206543 C3.03074324 4.11121124 3.03074324 4.11121124 -3.5625 2.6875 C-3.5625 3.3475 -3.5625 4.0075 -3.5625 4.6875 C-4.2225 4.6875 -4.8825 4.6875 -5.5625 4.6875 C-3.65409849 11.09427651 -0.0763353 14.29339853 4.96484375 18.57421875 C7.24014685 20.51883009 9.35143453 22.54335382 11.4375 24.6875 C6.50643479 23.17666611 3.38442338 20.31023105 -0.3125 16.875 C-0.90160156 16.35357422 -1.49070312 15.83214844 -2.09765625 15.29492188 C-4.69775332 12.9010394 -6.34424145 11.32772507 -7.5 7.9375 C-7.57552393 5.21863858 -7.1015218 3.91908161 -5.5625 1.6875 C-2.5625 -0.3125 -2.5625 -0.3125 0 0 Z " transform="translate(305.5625,517.3125)" style="fill: #27889E;"></path><path d="M0 0 C2.375 0.1875 2.375 0.1875 5 1 C6.4375 3.25 6.4375 3.25 7 6 C6.125117 9.13499743 5.30655645 10.69344355 3 13 C1.05111694 13.24050903 1.05111694 13.24050903 -1.35791016 13.22705078 C-2.25869293 13.22689972 -3.15947571 13.22674866 -4.08755493 13.22659302 C-5.06155243 13.21627045 -6.03554993 13.20594788 -7.0390625 13.1953125 C-8.03505463 13.1924826 -9.03104675 13.18965271 -10.05722046 13.18673706 C-13.24660118 13.1755184 -16.43570378 13.15041081 -19.625 13.125 C-21.78385012 13.11497238 -23.94270463 13.10584615 -26.1015625 13.09765625 C-31.40113699 13.07557361 -36.70054863 13.04207958 -42 13 C-39.61556332 10.61556332 -39.07540218 10.73816495 -35.82568359 10.68115234 C-34.96494232 10.66128265 -34.10420105 10.64141296 -33.21737671 10.62094116 C-31.8220018 10.60361435 -31.8220018 10.60361435 -30.3984375 10.5859375 C-29.44683746 10.56657135 -28.49523743 10.5472052 -27.51480103 10.5272522 C-24.46829253 10.46735868 -21.42174646 10.42103205 -18.375 10.375 C-16.3124833 10.33682921 -14.2499827 10.29777802 -12.1875 10.2578125 C-7.12513034 10.16164914 -2.06268605 10.07765437 3 10 C3.33 7.69 3.66 5.38 4 3 C3.34 3 2.68 3 2 3 C2 2.34 2 1.68 2 1 C1.34 0.67 0.68 0.34 0 0 Z " transform="translate(326,394)" style="fill: #288EA5;"></path><path d="M0 0 C2.89852365 1.31307372 4.98277217 2.72684638 7.234375 4.96875 C8.09482422 5.82533203 8.09482422 5.82533203 8.97265625 6.69921875 C9.85244141 7.59060547 9.85244141 7.59060547 10.75 8.5 C11.65298828 9.39138672 11.65298828 9.39138672 12.57421875 10.30078125 C13.14269531 10.87183594 13.71117187 11.44289063 14.296875 12.03125 C14.81604492 12.55267578 15.33521484 13.07410156 15.87011719 13.61132812 C17 15 17 15 17 17 C18.1446875 17.3403125 18.1446875 17.3403125 19.3125 17.6875 C22.62916407 19.30726618 23.22419521 20.81834976 25 24 C26.63754598 25.70537333 28.30332448 27.3544768 30 29 C33.27758487 32.22236111 36.54540275 35.45451114 39.8125 38.6875 C40.69615234 39.55439453 41.57980469 40.42128906 42.49023438 41.31445312 C43.32490234 42.14267578 44.15957031 42.97089844 45.01953125 43.82421875 C45.78370361 44.57791748 46.54787598 45.33161621 47.33520508 46.1081543 C49 48 49 48 49 50 C46.00425222 48.66779052 44.05344981 47.25482547 41.85546875 44.83203125 C41.26805908 44.19305908 40.68064941 43.55408691 40.07543945 42.89575195 C39.45241943 42.20827881 38.82939941 41.52080566 38.1875 40.8125 C32.25486434 34.36276945 26.18312704 28.09608752 19.92456055 21.9621582 C16.70309839 18.78576382 13.8173176 15.54773327 11 12 C9.86367452 10.98577967 8.6985977 10.00230956 7.5 9.0625 C4.22942685 6.3546061 2.16597699 3.63884134 0 0 Z " transform="translate(172,638)" style="fill: #247593;"></path><path d="M0 0 C5.04288875 4.1423729 7.58872713 9.56067417 8.35546875 15.97265625 C8.56456001 23.84842687 7.44835789 30.10179974 2.5625 36.375 C0.36390365 38.62722065 -1.09184194 39.92290442 -4 41 C-0.535 42.98 -0.535 42.98 3 45 C3 45.66 3 46.32 3 47 C-0.48670834 45.8905928 -3.77484237 44.73662334 -7 43 C-7 42.01 -7 41.02 -7 40 C-6.34 40 -5.68 40 -5 40 C-5 39.34 -5 38.68 -5 38 C-4.0925 37.46375 -3.185 36.9275 -2.25 36.375 C1.80449813 33.74245856 3.6624954 30.61363946 5 26 C5.98402203 18.71020412 5.06327459 12.80274105 1.97265625 6.15625 C1.04915844 4.10897775 0.47282287 2.18991643 0 0 Z " transform="translate(707,514)" style="fill: #071B28;"></path><path d="M0 0 C0.33 0.66 0.66 1.32 1 2 C-0.04809824 4.3903995 -1.31727478 6.62188607 -2.578125 8.90625 C-6.39197742 17.20452229 -7.44002523 24.66441875 -7.25 33.75 C-7.24484375 34.75160156 -7.2396875 35.75320313 -7.234375 36.78515625 C-7.18312311 41.62205302 -7.00222284 46.24752393 -6 51 C-4.35 49.68 -2.7 48.36 -1 47 C-0.34 47.33 0.32 47.66 1 48 C-0.98 50.31 -2.96 52.62 -5 55 C-5.99 54.67 -6.98 54.34 -8 54 C-12.16481396 35.03522217 -10.79523393 18.04152222 -1 1 C-0.67 0.67 -0.34 0.34 0 0 Z " transform="translate(257,371)" style="fill: #237D91;"></path><path d="M0 0 C0.66 0.33 1.32 0.66 2 1 C-2.43501016 6.2335972 -7.09278129 11.13690916 -11.984375 15.9453125 C-14.15809591 18.09034949 -14.15809591 18.09034949 -16.4375 21.0625 C-16.953125 21.701875 -17.46875 22.34125 -18 23 C-18.66 23 -19.32 23 -20 23 C-20.226875 23.66 -20.45375 24.32 -20.6875 25 C-21.82457437 27.59902714 -23.02033745 29.50778637 -24.625 31.8125 C-27.38782528 36.06611663 -27.44555369 39.00979862 -27 44 C-28.32 44 -29.64 44 -31 44 C-29.5547949 30.40327445 -21.22431353 21.62759753 -11.6875 12.5 C-9.89774306 10.76247084 -8.10988961 9.02297818 -6.32421875 7.28125 C-5.54135498 6.52908203 -4.75849121 5.77691406 -3.9519043 5.00195312 C-1.83898648 2.95747614 -1.83898648 2.95747614 0 0 Z " transform="translate(213,462)" style="fill: #287993;"></path><path d="M0 0 C0.495 0.99 0.495 0.99 1 2 C1.66 2 2.32 2 3 2 C3 2.66 3 3.32 3 4 C3.66 4 4.32 4 5 4 C5.04241723 6.33294775 5.04092937 8.66702567 5 11 C2.82431304 13.17568696 -2.26213318 12.23636082 -5.29296875 12.28125 C-6.23175369 12.29965942 -7.17053864 12.31806885 -8.13777161 12.33703613 C-11.1542819 12.39598125 -14.17085121 12.44866299 -17.1875 12.5 C-21.13943731 12.56784714 -25.09120248 12.64164936 -29.04296875 12.71875 C-29.94943649 12.73232544 -30.85590424 12.74590088 -31.7898407 12.7598877 C-36.29281597 12.84770572 -40.56797846 13.10076244 -45 14 C-41.43383893 10.43383893 -36.71340237 9.89710339 -31.84057617 9.78881836 C-30.32462768 9.79579864 -28.8086999 9.81324255 -27.29296875 9.83984375 C-26.08306023 9.8476461 -26.08306023 9.8476461 -24.84870911 9.85560608 C-22.29478185 9.87329129 -19.74127115 9.9044719 -17.1875 9.9375 C-14.61591883 9.96513074 -12.04439325 9.98980822 -9.47273254 10.00868225 C-7.87786246 10.02093145 -6.28302264 10.03852747 -4.6882782 10.06199646 C-0.71563471 10.19042763 -0.71563471 10.19042763 3 9 C2.505 8.01 2.505 8.01 2 7 C1.505 5.515 1.505 5.515 1 4 C-1.31 3.67 -3.62 3.34 -6 3 C-6 2.67 -6 2.34 -6 2 C-4.02 2 -2.04 2 0 2 C0 1.34 0 0.68 0 0 Z " transform="translate(325,393)" style="fill: #2FB1D5;"></path><path d="M0 0 C1.6874269 0.00015917 3.37485866 0.00585622 5.06225586 0.01586914 C6.39189613 0.01799156 6.39189613 0.01799156 7.74839783 0.02015686 C10.59133215 0.02577324 13.43418892 0.03832848 16.27709961 0.05102539 C18.19962452 0.05603828 20.12215065 0.06060155 22.04467773 0.06469727 C26.7680151 0.07574798 31.49129419 0.09302356 36.21459961 0.11352539 C35.88459961 0.77352539 35.55459961 1.43352539 35.21459961 2.11352539 C16.40459961 2.60852539 16.40459961 2.60852539 -2.78540039 3.11352539 C-3.44540039 4.76352539 -4.10540039 6.41352539 -4.78540039 8.11352539 C-5.44540039 7.78352539 -6.10540039 7.45352539 -6.78540039 7.11352539 C-4.55875996 0.1367187 -4.55875996 0.1367187 0 0 Z " transform="translate(553.785400390625,584.886474609375)" style="fill: #030F1C;"></path><path d="M0 0 C0 0.33 0 0.66 0 1 C-1.11375 1.13535156 -2.2275 1.27070313 -3.375 1.41015625 C-20.70051112 3.7571753 -34.55682146 9.36411736 -47 22 C-47.99 21.67 -48.98 21.34 -50 21 C-36.25562872 7.59011563 -19.64998287 -1.67471445 0 0 Z " transform="translate(302,337)" style="fill: #2A7F99;"></path><path d="M0 0 C3.92077199 3.54414611 5.84902911 6.99963573 6.25 12.3125 C5.90374592 17.41974766 4.26739378 20.49496988 1 24.375 C-1 26 -1 26 -4 26 C-4 25.34 -4 24.68 -4 24 C-3.21625 23.67 -2.4325 23.34 -1.625 23 C1.94412015 20.28067036 2.24467828 17.89995641 2.9140625 13.57421875 C3.04927563 9.52397083 2.11767093 7.45886252 0 4 C-2.94157654 1.34102034 -5.36891424 0.47636993 -9.25 -0.1875 C-10.14203125 -0.34605469 -11.0340625 -0.50460937 -11.953125 -0.66796875 C-12.62859375 -0.77753906 -13.3040625 -0.88710938 -14 -1 C-14 -1.33 -14 -1.66 -14 -2 C-8.61713878 -3.48028684 -4.7575463 -2.73118399 0 0 Z " transform="translate(694,566)" style="fill: #072030;"></path><path d="M0 0 C7.92 0 15.84 0 24 0 C24 0.66 24 1.32 24 2 C13.11 2.495 13.11 2.495 2 3 C0.4365019 7.55963636 0.4365019 7.55963636 -1.11083984 12.12475586 C-2.77777778 16.88888889 -2.77777778 16.88888889 -5 18 C-4.39489814 11.19260402 -2.50942799 6.90092696 0 0 Z " transform="translate(558,506)" style="fill: #030B16;"></path><path d="M0 0 C2.21751037 3.32626555 3.49669529 6.71541202 4.85546875 10.44140625 C5.12136307 11.16488754 5.38725739 11.88836884 5.66120911 12.6337738 C6.22049671 14.16027248 6.7776335 15.68756068 7.33276367 17.21557617 C8.1867067 19.56032177 9.05296919 21.90027283 9.91992188 24.24023438 C10.46169635 25.72368141 11.00273746 27.20739653 11.54296875 28.69140625 C11.80434128 29.39350723 12.06571381 30.09560822 12.33500671 30.81898499 C12.9484263 32.52611275 13.48189688 34.26157026 14 36 C13.67 36.66 13.34 37.32 13 38 C9.89947257 36.44973628 9.49325489 33.44170619 8.3984375 30.33203125 C8.1571109 29.65959885 7.9157843 28.98716644 7.66714478 28.2943573 C7.15755604 26.86738699 6.65174979 25.43906119 6.14941406 24.00952148 C5.38272679 21.834421 4.59850614 19.66622902 3.8125 17.49804688 C3.31922919 16.10975943 2.8270082 14.72109845 2.3359375 13.33203125 C2.10160004 12.68804886 1.86726257 12.04406647 1.62582397 11.38056946 C0.26684107 7.45845657 -0.23794243 4.14250611 0 0 Z " transform="translate(583,510)" style="fill: #071A28;"></path><path d="M0 0 C1.8046875 0.20703125 1.8046875 0.20703125 4 1 C8.66825755 6.93025062 12.66116057 14.28645998 12 22 C11 23 11 23 9.14233398 23.11352539 C8.35157471 23.10828857 7.56081543 23.10305176 6.74609375 23.09765625 C5.89208984 23.09443359 5.03808594 23.09121094 4.15820312 23.08789062 C3.26037109 23.07951172 2.36253906 23.07113281 1.4375 23.0625 C0.53580078 23.05798828 -0.36589844 23.05347656 -1.29492188 23.04882812 C-3.53001314 23.03700225 -5.76497437 23.0205222 -8 23 C-8 22.67 -8 22.34 -8 22 C-2.06 21.67 3.88 21.34 10 21 C8.10590765 13.52885794 5.47954417 8.22307933 1 2 C0.67 1.34 0.34 0.68 0 0 Z " transform="translate(493,514)" style="fill: #0D2637;"></path><path d="M0 0 C0.4125 1.11375 0.825 2.2275 1.25 3.375 C2.87541581 7.36390308 5.24706513 8.88897413 9 11 C9.99 11.66 10.98 12.32 12 13 C9 14 9 14 6.625 12.875 C1.56274528 9.25910377 -0.74984806 7.25075969 -2 1 C-7.94 1 -13.88 1 -20 1 C-17.08984218 -1.91015782 -13.91236783 -1.53796608 -10 -1.75 C-8.89398438 -1.83314453 -8.89398438 -1.83314453 -7.765625 -1.91796875 C-2.25010757 -2.25010757 -2.25010757 -2.25010757 0 0 Z " transform="translate(448,580)" style="fill: #040E19;"></path><path d="M0 0 C3 1 3 1 4.3515625 3.328125 C4.77179688 4.29234375 5.19203125 5.2565625 5.625 6.25 C6.05039062 7.20390625 6.47578125 8.1578125 6.9140625 9.140625 C9.5171396 15.99477045 9.18354683 22.82424674 9.1875 30.0625 C9.19974609 31.24650391 9.21199219 32.43050781 9.22460938 33.65039062 C9.22750977 35.35678711 9.22750977 35.35678711 9.23046875 37.09765625 C9.23457764 38.13414307 9.23868652 39.17062988 9.24291992 40.23852539 C8.99951666 43.00549457 8.42356649 44.64408032 7 47 C7.01571045 46.31599121 7.0314209 45.63198242 7.04760742 44.92724609 C8.39975389 22.26319586 8.39975389 22.26319586 0 2 C0 1.34 0 0.68 0 0 Z " transform="translate(318,543)" style="fill: #267D90;"></path><path d="M0 0 C3.51412948 -0.30646478 5.45817024 -0.33525717 8.5 1.546875 C9.325 2.27390625 10.15 3.0009375 11 3.75 C11.93714844 4.56210937 12.87429688 5.37421875 13.83984375 6.2109375 C14.34241699 6.65663086 14.84499023 7.10232422 15.36279297 7.56152344 C17.13875366 9.12191121 18.94267447 10.64478634 20.75390625 12.1640625 C22.02379369 13.23395237 23.29332929 14.30426 24.5625 15.375 C25.17029297 15.88643555 25.77808594 16.39787109 26.40429688 16.92480469 C29.02471422 19.16388157 31.07599602 21.11399402 33 24 C29.05380584 22.34145463 26.06740739 19.65155803 22.875 16.875 C21.7139724 15.88621276 20.5525096 14.89793632 19.390625 13.91015625 C17.29993412 12.12342689 15.23129078 10.31941629 13.171875 8.49609375 C8.19043509 3.96906231 8.19043509 3.96906231 1.875 2.5 C0.92625 2.665 -0.0225 2.83 -1 3 C-0.67 2.01 -0.34 1.02 0 0 Z " transform="translate(324,486)" style="fill: #298196;"></path><path d="M0 0 C5.048749 7.5731235 4.24525961 16.23955004 4.125 25 C4.11597656 26.25167969 4.10695313 27.50335938 4.09765625 28.79296875 C4.07422716 31.8621801 4.04142147 34.93098756 4 38 C2.515 38.495 2.515 38.495 1 39 C0.91023172 33.75354289 0.85384468 28.63599407 1.625 23.4375 C2.54889201 15.65402623 1.01752897 7.71976525 0 0 Z " transform="translate(366,385)" style="fill: #2FAED1;"></path><path d="M0 0 C5.83613239 2.13243299 9.11999279 4.23998557 12 10 C12.44080589 14.3148115 12.47056025 17.94684134 10.6875 21.9375 C9 24 9 24 6 26 C3.8125 25.625 3.8125 25.625 2 25 C2.78375 24.5875 3.5675 24.175 4.375 23.75 C7.2065998 21.8622668 8.04557385 21.2103425 9 18 C9.52720041 13.33051067 9.75658076 10.40231116 6.8125 6.625 C4.17962654 4.16765143 2.42195598 2.97770171 -1 2 C-0.67 1.34 -0.34 0.68 0 0 Z " transform="translate(476,567)" style="fill: #081D2B;"></path><path d="M0 0 C0.66 0.33 1.32 0.66 2 1 C2 1.66 2 2.32 2 3 C2.99 3.33 3.98 3.66 5 4 C4.01 4 3.02 4 2 4 C2 9.28 2 14.56 2 20 C3.32 20 4.64 20 6 20 C6 20.66 6 21.32 6 22 C4.02 22 2.04 22 0 22 C-0.86332757 17.53262243 -1.13467581 13.29763063 -1.125 8.75 C-1.12757813 7.52796875 -1.13015625 6.3059375 -1.1328125 5.046875 C-1 2 -1 2 0 0 Z " transform="translate(782,504)" style="fill: #031C2D;"></path><path d="M0 0 C1.26660973 1.8999146 2.48265955 3.83537229 3.625 5.8125 C8.72319777 12.65481805 16.48760087 17.7481766 25 19 C24.34 19.66 23.68 20.32 23 21 C15.54680591 20.50800545 9.07255177 16.21601722 3.9921875 10.8984375 C1.53085088 7.72366998 -0.36091228 5.03316168 -1 1 C-0.67 0.67 -0.34 0.34 0 0 Z " transform="translate(430,588)" style="fill: #092230;"></path><path d="M0 0 C0.99 0.495 0.99 0.495 2 1 C4.10374996 1.15441209 6.21195119 1.24992639 8.3203125 1.31640625 C9.57714844 1.35830078 10.83398438 1.40019531 12.12890625 1.44335938 C14.10697266 1.50233398 14.10697266 1.50233398 16.125 1.5625 C17.46485751 1.60569512 18.80470156 1.64930973 20.14453125 1.69335938 C23.42957815 1.79970981 26.71470281 1.90173808 30 2 C30 2.66 30 3.32 30 4 C20.43 4 10.86 4 1 4 C0.67 2.68 0.34 1.36 0 0 Z " transform="translate(554,568)" style="fill: #010C19;"></path><path d="M0 0 C0 3.5424636 -0.42846108 3.81960939 -2.75 6.3125 C-5.22426233 9.01951502 -7.64658218 11.75098587 -9.99609375 14.56640625 C-10.52170898 15.19313232 -11.04732422 15.8198584 -11.58886719 16.46557617 C-12.64220589 17.72369499 -13.69115549 18.98550354 -14.73535156 20.2512207 C-19.31638151 25.68128216 -19.31638151 25.68128216 -23 27 C-21.66000502 23.993182 -20.20154709 22.00237391 -17.8125 19.75 C-13.97230294 16.021113 -10.48840128 12.05574567 -7 8 C-5.68877212 6.49888785 -4.37630954 4.99885314 -3.0625 3.5 C-2.47597656 2.8296875 -1.88945312 2.159375 -1.28515625 1.46875 C-0.86105469 0.9840625 -0.43695313 0.499375 0 0 Z " transform="translate(247,491)" style="fill: #24829F;"></path><path d="M0 0 C5.72729096 0.42954682 9.39447802 2.84781971 14 6 C14.99 6.66 15.98 7.32 17 8 C17 8.66 17 9.32 17 10 C17.66 10 18.32 10 19 10 C23.57142857 17.28571429 23.57142857 17.28571429 23 22 C21.00853316 20.00853316 20.39651519 18.78100378 19.3125 16.25 C15.28315695 8.08799742 8.00573511 4.64043488 0 1 C0 0.67 0 0.34 0 0 Z " transform="translate(482,552)" style="fill: #061C2A;"></path><path d="M0 0 C0.66 0.33 1.32 0.66 2 1 C1.62278834 7.03538658 -2.4252601 11.69688101 -6.77734375 15.58984375 C-10.06578024 18.07236145 -12.80056071 19.61823279 -17 20 C-17 19.34 -17 18.68 -17 18 C-16.11248047 17.56300781 -16.11248047 17.56300781 -15.20703125 17.1171875 C-7.13365065 12.929039 -3.2390283 8.52375867 0 0 Z " transform="translate(715,587)" style="fill: #081D2A;"></path><path d="M0 0 C0.81275391 0.00064453 1.62550781 0.00128906 2.46289062 0.00195312 C3.30400391 0.01806641 4.14511719 0.03417969 5.01171875 0.05078125 C5.84123047 0.04755859 6.67074219 0.04433594 7.52539062 0.04101562 C12.61678513 0.08521873 16.87588934 0.72946792 21.69921875 2.36328125 C21.69921875 2.69328125 21.69921875 3.02328125 21.69921875 3.36328125 C11.79921875 3.36328125 1.89921875 3.36328125 -8.30078125 3.36328125 C-3.79575364 -0.01548945 -3.79575364 -0.01548945 0 0 Z " transform="translate(293.30078125,391.63671875)" style="fill: #2798AD;"></path><path d="M0 0 C0.66 0.99 1.32 1.98 2 3 C4.93597539 3.38384509 7.68027373 3.603843 10.625 3.6875 C11.82769531 3.73874023 11.82769531 3.73874023 13.0546875 3.79101562 C15.03596318 3.87356878 17.01796037 3.93845916 19 4 C19 3.34 19 2.68 19 2 C19.66 2 20.32 2 21 2 C21.33 3.32 21.66 4.64 22 6 C11.605 6.495 11.605 6.495 1 7 C0.34 5.02 -0.32 3.04 -1 1 C-0.67 0.67 -0.34 0.34 0 0 Z " transform="translate(597,603)" style="fill: #031422;"></path><path d="M0 0 C0.99 0.33 1.98 0.66 3 1 C2.34 1 1.68 1 1 1 C1 1.66 1 2.32 1 3 C0.34 3 -0.32 3 -1 3 C-1 3.66 -1 4.32 -1 5 C-1.66 5 -2.32 5 -3 5 C-1.09159849 11.40677651 2.4861647 14.60589853 7.52734375 18.88671875 C9.80264685 20.83133009 11.91393453 22.85585382 14 25 C9.06893479 23.48916611 5.94692338 20.62273105 2.25 17.1875 C1.66089844 16.66607422 1.07179688 16.14464844 0.46484375 15.60742188 C-2.13525332 13.2135394 -3.78174145 11.64022507 -4.9375 8.25 C-5.01302393 5.53113858 -4.5390218 4.23158161 -3 2 C-2.01 1.34 -1.02 0.68 0 0 Z " transform="translate(303,517)" style="fill: #298EA4;"></path><path d="M0 0 C0 0.33 0 0.66 0 1 C-0.57967529 1.02505615 -1.15935059 1.0501123 -1.7565918 1.07592773 C-4.40042107 1.19246234 -7.04394409 1.31492682 -9.6875 1.4375 C-11.05551758 1.49647461 -11.05551758 1.49647461 -12.45117188 1.55664062 C-13.33740234 1.59853516 -14.22363281 1.64042969 -15.13671875 1.68359375 C-15.94842529 1.72025146 -16.76013184 1.75690918 -17.59643555 1.79467773 C-20.12526911 2.010701 -22.52132903 2.46124755 -25 3 C-28.33333333 3.66666667 -31.66666667 4.33333333 -35 5 C-34 3 -34 3 -31.7421875 2.18359375 C-20.91086114 -0.63491216 -11.06814465 -1.88393952 0 0 Z " transform="translate(314,349)" style="fill: #24869F;"></path><path d="M0 0 C0.33 0 0.66 0 1 0 C1.06058594 1.22976563 1.12117187 2.45953125 1.18359375 3.7265625 C1.26805005 5.35938427 1.35269547 6.99219627 1.4375 8.625 C1.47681641 9.43324219 1.51613281 10.24148438 1.55664062 11.07421875 C1.78796082 15.45150865 2.16920917 19.68547281 3 24 C4.65 22.68 6.3 21.36 8 20 C8.66 20.33 9.32 20.66 10 21 C8.02 23.31 6.04 25.62 4 28 C3.01 27.67 2.02 27.34 1 27 C-0.39569705 17.80685498 -1.4551617 9.28157192 0 0 Z " transform="translate(248,398)" style="fill: #2F91A7;"></path><path d="M0 0 C0.33 0 0.66 0 1 0 C1 9.9 1 19.8 1 30 C0.01 29.34 -0.98 28.68 -2 28 C-1.34 28 -0.68 28 0 28 C0 25.69 0 23.38 0 21 C-0.66 21 -1.32 21 -2 21 C-2 19.02 -2 17.04 -2 15 C-1.34 15 -0.68 15 0 15 C-0.34804688 14.45859375 -0.69609375 13.9171875 -1.0546875 13.359375 C-2.28828868 10.28046958 -1.81428573 8.46666674 -1.125 5.25 C-0.92132812 4.26515625 -0.71765625 3.2803125 -0.5078125 2.265625 C-0.34023438 1.51796875 -0.17265625 0.7703125 0 0 Z " transform="translate(640,508)" style="fill: #012335;"></path><path d="M0 0 C5.24555292 4.88585786 7.44582125 10.8165082 7.984375 17.87890625 C8.00495482 20.67261695 7.62724883 23.28192172 7 26 C6.67 26 6.34 26 6 26 C5.85304688 24.49759766 5.85304688 24.49759766 5.703125 22.96484375 C4.92430733 15.80349835 4.0654257 10.09813855 0 4 C0 2.68 0 1.36 0 0 Z " transform="translate(711,561)" style="fill: #06202F;"></path><path d="M0 0 C7.38197425 3.07296137 7.38197425 3.07296137 9.5 6.25 C10.17749063 9.97619845 10.24874009 13.20671356 10 17 C9.34 17.66 8.68 18.32 8 19 C7.66468585 17.04200486 7.33180857 15.08359226 7 13.125 C6.814375 12.03445313 6.62875 10.94390625 6.4375 9.8203125 C6 7 6 7 6 5 C3.03 4.01 0.06 3.02 -3 2 C-2.01 1.34 -1.02 0.68 0 0 Z " transform="translate(686,522)" style="fill: #082534;"></path><path d="M0 0 C3.3 0.33 6.6 0.66 10 1 C5.67040259 3.1647987 2.27274967 3.39758093 -2.4375 3.5625 C-3.93633614 3.62296807 -5.43504512 3.68668903 -6.93359375 3.75390625 C-7.63726074 3.78500488 -8.34092773 3.81610352 -9.06591797 3.84814453 C-11.18002813 3.96818247 -11.18002813 3.96818247 -13.91015625 4.65234375 C-14.59980469 4.76707031 -15.28945313 4.88179688 -16 5 C-16.66 4.34 -17.32 3.68 -18 3 C-11.76647981 0.6451146 -6.54311329 1.12442969 0 2 C0 1.34 0 0.68 0 0 Z " transform="translate(466,504)" style="fill: #082131;"></path><path d="M0 0 C0.98291016 0.05478516 1.96582031 0.10957031 2.97851562 0.16601562 C4.00267578 0.23884766 5.02683594 0.31167969 6.08203125 0.38671875 C7.63567383 0.47856445 7.63567383 0.47856445 9.22070312 0.57226562 C11.77985082 0.72557862 14.3372017 0.89342945 16.89453125 1.07421875 C13.70308407 2.77990541 11.7767704 3.259301 8.14453125 3.07421875 C4.65984342 2.98156826 1.80329714 3.22193592 -1.54296875 4.19921875 C-3.30640625 4.63234375 -3.30640625 4.63234375 -5.10546875 5.07421875 C-6.09546875 4.41421875 -7.08546875 3.75421875 -8.10546875 3.07421875 C-5.59121799 -0.10952859 -3.96564307 -0.25215072 0 0 Z " transform="translate(287.10546875,393.92578125)" style="fill: #2EABCD;"></path><path d="M0 0 C0 3 0 3 -1.7578125 5.015625 C-2.53898437 5.75296875 -3.32015625 6.4903125 -4.125 7.25 C-7.06770748 10.08148704 -9.84647422 12.90569192 -12.4375 16.0625 C-13.7059375 17.5165625 -13.7059375 17.5165625 -15 19 C-15.66 19 -16.32 19 -17 19 C-17 19.66 -17 20.32 -17 21 C-17.99 20.67 -18.98 20.34 -20 20 C-13.4 13.4 -6.8 6.8 0 0 Z " transform="translate(288,654)" style="fill: #24768F;"></path><path d="M0 0 C0.66 0 1.32 0 2 0 C1.67 1.98 1.34 3.96 1 6 C-5.27 6 -11.54 6 -18 6 C-18 5.34 -18 4.68 -18 4 C-9.585 3.505 -9.585 3.505 -1 3 C-0.67 2.01 -0.34 1.02 0 0 Z " transform="translate(543,603)" style="fill: #041421;"></path><path d="M0 0 C0.66 0.33 1.32 0.66 2 1 C-10.09621993 12 -10.09621993 12 -17 12 C-17 9.69 -17 7.38 -17 5 C-15 7 -15 7 -15 10 C-7.17998592 5.4678417 -7.17998592 5.4678417 0 0 Z " transform="translate(339,449)" style="fill: #258CA5;"></path><path d="M0 0 C0.66 0.33 1.32 0.66 2 1 C0.94178287 1.94233168 -0.12182323 2.87861268 -1.1875 3.8125 C-1.77917969 4.33457031 -2.37085938 4.85664063 -2.98046875 5.39453125 C-5 7 -5 7 -7.4375 8.40625 C-10.32449834 10.20182214 -12.4470315 12.2514205 -14.8125 14.6875 C-15.99779297 15.89986328 -15.99779297 15.89986328 -17.20703125 17.13671875 C-18.09455078 18.05904297 -18.09455078 18.05904297 -19 19 C-19 15.38798174 -17.9462725 14.56203784 -15.49389648 12.07714844 C-15.00091064 11.59793945 -14.5079248 11.11873047 -14 10.625 C-13.50250244 10.13547852 -13.00500488 9.64595703 -12.49243164 9.14160156 C-8.62937822 5.42562343 -4.80346065 2.44539815 0 0 Z " transform="translate(270,346)" style="fill: #2DABCF;"></path><path d="M0 0 C0.66 0.33 1.32 0.66 2 1 C1.4946875 1.48210937 0.989375 1.96421875 0.46875 2.4609375 C-0.1809375 3.09257812 -0.830625 3.72421875 -1.5 4.375 C-2.1496875 5.00148438 -2.799375 5.62796875 -3.46875 6.2734375 C-5.22117431 7.86475907 -5.22117431 7.86475907 -5 10 C-6.57054206 11.41696507 -8.20746664 12.76106816 -9.875 14.0625 C-10.77992188 14.77535156 -11.68484375 15.48820312 -12.6171875 16.22265625 C-15 18 -15 18 -17 19 C-15.60652624 15.84795019 -13.97514921 13.73828227 -11.5234375 11.328125 C-10.51796875 10.33232422 -10.51796875 10.33232422 -9.4921875 9.31640625 C-8.79351562 8.63449219 -8.09484375 7.95257813 -7.375 7.25 C-6.66859375 6.55261719 -5.9621875 5.85523438 -5.234375 5.13671875 C-3.49401297 3.41987512 -1.74915019 1.70788168 0 0 Z " transform="translate(241,436)" style="fill: #2BA6CA;"></path><path d="M0 0 C0.66 0 1.32 0 2 0 C0.3186083 6.48707154 -1.53062327 12.7677635 -4 19 C-4.66 19 -5.32 19 -6 19 C-4.70024676 12.28460827 -2.70071112 6.27980887 0 0 Z " transform="translate(528,591)" style="fill: #081925;"></path><path d="M0 0 C2.48044315 3.72066472 2.44381173 6.86540474 2.625 11.1875 C2.66367187 11.93708984 2.70234375 12.68667969 2.7421875 13.45898438 C2.83628216 15.30559199 2.91922319 17.1527619 3 19 C2.34 19 1.68 19 1 19 C-0.93833398 12.36801431 -1.05268874 6.81402575 0 0 Z " transform="translate(429,527)" style="fill: #0C2636;"></path><path d="M0 0 C2.3125 0.8125 2.3125 0.8125 4 2 C2.948125 2.4125 1.89625 2.825 0.8125 3.25 C-6.07929362 6.25909299 -9.36013791 10.61862476 -13 17 C-13.7578125 15.31640625 -13.7578125 15.31640625 -14 13 C-12.3046875 10.52734375 -12.3046875 10.52734375 -9.875 7.9375 C-9.08867187 7.08027344 -8.30234375 6.22304688 -7.4921875 5.33984375 C-5.09589207 3.09003033 -2.95143647 1.43876369 0 0 Z " transform="translate(445,508)" style="fill: #081926;"></path><path d="M0 0 C0.66 0.33 1.32 0.66 2 1 C1.195625 1.9075 0.39125 2.815 -0.4375 3.75 C-2.08382749 5.69984038 -2.93706942 6.74827769 -3.5625 9.25 C-3.706875 9.8275 -3.85125 10.405 -4 11 C-5.8125 12.0625 -5.8125 12.0625 -8 13 C-9.35113205 13.97581759 -10.68946944 14.97029741 -12 16 C-10.32770299 12.04030824 -7.63695006 8.9838799 -4.875 5.75 C-4.40707031 5.19570313 -3.93914062 4.64140625 -3.45703125 4.0703125 C-2.30824672 2.71052674 -1.15460347 1.35484835 0 0 Z M-1 5 C-0.01 5.495 -0.01 5.495 1 6 C0.01 6.495 0.01 6.495 -1 7 C-1 6.34 -1 5.68 -1 5 Z " transform="translate(304,635)" style="fill: #26809C;"></path><path d="M0 0 C0 0.33 0 0.66 0 1 C-1.98 1 -3.96 1 -6 1 C-6 1.66 -6 2.32 -6 3 C-8 5 -8 5 -11 5 C-10.67 4.34 -10.34 3.68 -10 3 C-13.96 5.475 -13.96 5.475 -18 8 C-14.05944817 0.11889635 -8.0937606 -0.66071515 0 0 Z " transform="translate(305,433)" style="fill: #288FA8;"></path><path d="M0 0 C0.66 0.33 1.32 0.66 2 1 C0.36587557 2.70840281 -0.86906094 3.93453047 -3 5 C0.465 6.98 0.465 6.98 4 9 C4 9.66 4 10.32 4 11 C0.51329166 9.8905928 -2.77484237 8.73662334 -6 7 C-6 6.01 -6 5.02 -6 4 C-5.34 4 -4.68 4 -4 4 C-4 3.34 -4 2.68 -4 2 C-2.125 0.9375 -2.125 0.9375 0 0 Z " transform="translate(706,550)" style="fill: #052233;"></path><path d="M0 0 C0.66 0.33 1.32 0.66 2 1 C0.23802703 3.48590754 -1.53386492 5.96355991 -3.3125 8.4375 C-3.81201172 9.14455078 -4.31152344 9.85160156 -4.82617188 10.58007812 C-5.31279297 11.25361328 -5.79941406 11.92714844 -6.30078125 12.62109375 C-6.74591064 13.2442749 -7.19104004 13.86745605 -7.6496582 14.50952148 C-9 16 -9 16 -12 17 C-10.25477062 12.94785821 -7.5771843 9.69396039 -4.875 6.25 C-4.40707031 5.64800781 -3.93914062 5.04601562 -3.45703125 4.42578125 C-2.30774993 2.94813384 -1.15428765 1.47373995 0 0 Z " transform="translate(268,464)" style="fill: #28859D;"></path><path d="M0 0 C0 0.99 0 1.98 0 3 C-1.609375 4.46484375 -1.609375 4.46484375 -3.75 5.9375 C-6.78272376 8.09374508 -9.46510479 10.25386352 -12 13 C-12.99 12.67 -13.98 12.34 -15 12 C-13.44233138 10.55726615 -11.87864043 9.12103292 -10.3125 7.6875 C-9.44238281 6.88699219 -8.57226562 6.08648437 -7.67578125 5.26171875 C-5.21829688 3.18451663 -2.80496684 1.56168424 0 0 Z " transform="translate(267,346)" style="fill: #25889D;"></path><path d="M0 0 C1.89453748 2.84180622 3.00192814 5.31564815 4.1875 8.5 C4.55230469 9.4590625 4.91710937 10.418125 5.29296875 11.40625 C6 14 6 14 5 17 C2.51737568 14.51737568 1.92713025 12.38224713 0.8125 9.0625 C0.44769531 8.00160156 0.08289063 6.94070313 -0.29296875 5.84765625 C-1 3 -1 3 0 0 Z " transform="translate(597,549)" style="fill: #071C2A;"></path><path d="M0 0 C1.32 0.66 2.64 1.32 4 2 C-1.27913453 4.08386889 -6.39538469 4.57910004 -12 5 C-11.67 3.68 -11.34 2.36 -11 1 C-7.37 1.33 -3.74 1.66 0 2 C0 1.34 0 0.68 0 0 Z " transform="translate(351,551)" style="fill: #2EA6C5;"></path><path d="M0 0 C0.66 0.33 1.32 0.66 2 1 C2 1.66 2 2.32 2 3 C2.99 3.33 3.98 3.66 5 4 C3.68 4 2.36 4 1 4 C1 7.96 1 11.92 1 16 C0.34 16 -0.32 16 -1 16 C-1.02692484 13.70839681 -1.04636124 11.41670454 -1.0625 9.125 C-1.07410156 7.84882813 -1.08570313 6.57265625 -1.09765625 5.2578125 C-1 2 -1 2 0 0 Z " transform="translate(782,504)" style="fill: #0A2836;"></path><path d="M0 0 C2.53605069 2.53605069 2.79250373 4.46876556 3.625 7.9375 C3.88539063 8.99839844 4.14578125 10.05929687 4.4140625 11.15234375 C5 14 5 14 5 17 C4.34 17 3.68 17 3 17 C2.3054231 14.35583817 1.61906118 11.71001652 0.9375 9.0625 C0.73833984 8.30775391 0.53917969 7.55300781 0.33398438 6.77539062 C-0.15531385 4.8611186 -0.58271593 2.93124937 -1 1 C-0.67 0.67 -0.34 0.34 0 0 Z " transform="translate(366,379)" style="fill: #2689A4;"></path><path d="M0 0 C0.226875 0.556875 0.45375 1.11375 0.6875 1.6875 C3.62770241 6.86785662 7.6358802 9.62980753 13 12 C12.01 12.66 11.02 13.32 10 14 C6.00899852 11.83345634 2.87903159 9.53709595 0 6 C-0.3125 2.6875 -0.3125 2.6875 0 0 Z " transform="translate(447,580)" style="fill: #072132;"></path><path d="M0 0 C0.65355469 0.58007812 0.65355469 0.58007812 1.3203125 1.171875 C5.05744652 4.43984501 8.8076016 7.34140589 13 10 C12.34 10.66 11.68 11.32 11 12 C6.33648834 9.18020225 3.24908888 6.39582613 0 2 C0 1.34 0 0.68 0 0 Z " transform="translate(432,547)" style="fill: #071E2F;"></path><path d="M0 0 C5.59606702 0.21523335 8.67407006 1.72917492 13 5 C12.34 5.66 11.68 6.32 11 7 C10.48050781 6.72285156 9.96101562 6.44570313 9.42578125 6.16015625 C5.63783995 4.19266733 2.29300887 2.53662611 -2 2 C-1.34 1.34 -0.68 0.68 0 0 Z " transform="translate(692,507)" style="fill: #062431;"></path><path d="M0 0 C0 0.99 0 1.98 0 3 C-5.03235277 7.6374599 -10.10218183 10.85004743 -17 11 C-13.62890268 8.75260179 -10.22188008 6.56356896 -6.8125 4.375 C-6.15830078 3.95476562 -5.50410156 3.53453125 -4.83007812 3.1015625 C-3.22019901 2.06747956 -1.6101191 1.03370923 0 0 Z " transform="translate(338,452)" style="fill: #2CADD1;"></path><path d="M0 0 C0 3.88673756 -1.18417172 4.72042378 -3.75 7.5625 C-4.79414063 8.74005859 -4.79414063 8.74005859 -5.859375 9.94140625 C-7.85528129 11.86082708 -9.46540534 12.94391889 -12 14 C-11.25 11.0625 -11.25 11.0625 -10 8 C-8.66666667 7.66666667 -7.33333333 7.33333333 -6 7 C-4.24399324 5.39255122 -4.24399324 5.39255122 -2.75 3.4375 C-1.96882812 2.47650391 -1.96882812 2.47650391 -1.171875 1.49609375 C-0.78515625 1.00238281 -0.3984375 0.50867188 0 0 Z " transform="translate(185,622)" style="fill: #257697;"></path><path d="M0 0 C1.1484375 1.609375 1.1484375 1.609375 2 4 C1.1015625 7.015625 1.1015625 7.015625 -0.375 10.25 C-0.85710938 11.32765625 -1.33921875 12.4053125 -1.8359375 13.515625 C-2.22007812 14.33546875 -2.60421875 15.1553125 -3 16 C-3.33 16 -3.66 16 -4 16 C-3.39891424 10.34979382 -1.92471317 5.33835539 0 0 Z " transform="translate(557,508)" style="fill: #071E2C;"></path><path d="M0 0 C1.1484375 1.609375 1.1484375 1.609375 2 4 C1.1015625 7.015625 1.1015625 7.015625 -0.375 10.25 C-0.85710938 11.32765625 -1.33921875 12.4053125 -1.8359375 13.515625 C-2.22007812 14.33546875 -2.60421875 15.1553125 -3 16 C-3.33 16 -3.66 16 -4 16 C-3.39891424 10.34979382 -1.92471317 5.33835539 0 0 Z " transform="translate(545,542)" style="fill: #061F2C;"></path><path d="M0 0 C6.2049038 0.2757735 10.10160999 1.10640794 15 5 C11.01508155 6.32830615 9.59951452 5.23204404 5.8125 3.5625 C4.72582031 3.08941406 3.63914062 2.61632812 2.51953125 2.12890625 C1.68808594 1.75636719 0.85664063 1.38382812 0 1 C0 0.67 0 0.34 0 0 Z " transform="translate(478,507)" style="fill: #0C1E2F;"></path><path d="M0 0 C-1.22984849 3.68954546 -1.71240619 3.35620309 -5 5 C-6.68662458 6.64646685 -8.35511706 8.31183067 -10 10 C-10.99 10.495 -10.99 10.495 -12 11 C-10.5611898 7.612801 -8.77880501 5.6405896 -6 3.25 C-5.29875 2.63640625 -4.5975 2.0228125 -3.875 1.390625 C-2 0 -2 0 0 0 Z " transform="translate(279,398)" style="fill: #2CACCF;"></path><path d="M0 0 C0.33 0.99 0.66 1.98 1 3 C-0.24372189 3.98712878 -1.49527218 4.96439905 -2.75 5.9375 C-3.44609375 6.48277344 -4.1421875 7.02804687 -4.859375 7.58984375 C-6.96092128 8.97425654 -8.54321799 9.56286987 -11 10 C-11 9.34 -11 8.68 -11 8 C-9.35546875 6.74609375 -9.35546875 6.74609375 -7.1875 5.4375 C-6.47980469 5.00308594 -5.77210938 4.56867187 -5.04296875 4.12109375 C-3 3 -3 3 0 2 C0 1.34 0 0.68 0 0 Z " transform="translate(253,689)" style="fill: #257A95;"></path><path d="M0 0 C1.14630236 3.43890708 0.82148812 4.20691343 -0.375 7.5 C-0.65085937 8.2734375 -0.92671875 9.046875 -1.2109375 9.84375 C-1.47132813 10.5553125 -1.73171875 11.266875 -2 12 C-2.33 12.99 -2.66 13.98 -3 15 C-3.66 15 -4.32 15 -5 15 C-4.54705135 13.24859857 -4.08741252 11.49892656 -3.625 9.75 C-3.36976563 8.77546875 -3.11453125 7.8009375 -2.8515625 6.796875 C-2.10401491 4.34162697 -1.22876183 2.24382595 0 0 Z " transform="translate(281,599)" style="fill: #257E98;"></path><path d="M0 0 C1.07894531 0.30164063 2.15789062 0.60328125 3.26953125 0.9140625 C4.35621094 1.21054687 5.44289063 1.50703125 6.5625 1.8125 C7.39394531 2.05226563 8.22539062 2.29203125 9.08203125 2.5390625 C9.08203125 3.1990625 9.08203125 3.8590625 9.08203125 4.5390625 C4.13203125 3.5490625 -0.81796875 2.5590625 -5.91796875 1.5390625 C-2.91796875 -0.4609375 -2.91796875 -0.4609375 0 0 Z " transform="translate(464.91796875,563.4609375)" style="fill: #062130;"></path><path d="M0 0 C0 0.66 0 1.32 0 2 C2.64 2 5.28 2 8 2 C7.67 2.66 7.34 3.32 7 4 C4.03 4 1.06 4 -2 4 C-2 3.34 -2 2.68 -2 2 C-2.99 1.67 -3.98 1.34 -5 1 C-3 0 -3 0 0 0 Z " transform="translate(466,592)" style="fill: #052538;"></path><path d="M0 0 C0.99 0.33 1.98 0.66 3 1 C4.58072959 4.28305377 5.84845643 7.54536928 7 11 C6.0625 13.1875 6.0625 13.1875 5 15 C4.35163958 13.25093469 3.70641216 11.50070781 3.0625 9.75 C2.70285156 8.77546875 2.34320313 7.8009375 1.97265625 6.796875 C1.18620345 4.53542839 0.52748399 2.33203448 0 0 Z " transform="translate(321,544)" style="fill: #2CABCE;"></path><path d="M0 0 C0 3.56229451 -0.76109009 4.41109679 -2.875 7.1875 C-3.40867187 7.90292969 -3.94234375 8.61835938 -4.4921875 9.35546875 C-4.98976563 9.89816406 -5.48734375 10.44085938 -6 11 C-6.66 11 -7.32 11 -8 11 C-7.34 9.68 -6.68 8.36 -6 7 C-6.66 6.34 -7.32 5.68 -8 5 C-6.8553125 4.87625 -6.8553125 4.87625 -5.6875 4.75 C-2.47626739 3.85384206 -1.70625501 2.78388975 0 0 Z " transform="translate(263,412)" style="fill: #29AACB;"></path><path d="M0 0 C0.99 0 1.98 0 3 0 C1.52278578 3.45201639 -0.43794001 5.64961936 -3.125 8.25 C-3.84945313 8.95640625 -4.57390625 9.6628125 -5.3203125 10.390625 C-5.87460938 10.92171875 -6.42890625 11.4528125 -7 12 C-7 9 -7 9 -5.72265625 7.5 C-5.17480469 7.005 -4.62695312 6.51 -4.0625 6 C-1.72464075 3.87768805 -1.03724116 3.11172349 0 0 Z " transform="translate(260,429)" style="fill: #288AA2;"></path><path d="M0 0 C1.60495567 0.11442461 3.20898119 0.24194694 4.8125 0.375 C5.70582031 0.44460938 6.59914063 0.51421875 7.51953125 0.5859375 C10 1 10 1 13 3 C9.57056481 4.18771723 7.62215325 3.80226223 4.25 2.5625 C3.45078125 2.27503906 2.6515625 1.98757813 1.828125 1.69140625 C1.22484375 1.46324219 0.6215625 1.23507812 0 1 C0 0.67 0 0.34 0 0 Z " transform="translate(467,548)" style="fill: #0A1E2E;"></path><path d="M0 0 C2.02196167 2.02196167 2.67551358 3.25864486 3.6875 5.875 C3.95949219 6.55304687 4.23148437 7.23109375 4.51171875 7.9296875 C5.07336741 10.31107782 4.76694846 11.70430191 4 14 C1.3184721 10.92307254 0.57912193 8.80265337 0.3125 4.75 C0.24675781 3.85796875 0.18101562 2.9659375 0.11328125 2.046875 C0.07589844 1.37140625 0.03851563 0.6959375 0 0 Z " transform="translate(287,540)" style="fill: #2EACD1;"></path><path d="M0 0 C6.42293907 3.09677419 6.42293907 3.09677419 8.4375 6.25 C8.623125 6.8275 8.80875 7.405 9 8 C8.01 8.495 8.01 8.495 7 9 C6.2575 8.236875 5.515 7.47375 4.75 6.6875 C2.5736677 4.5606298 0.47832204 2.7440044 -2 1 C-1.34 0.67 -0.68 0.34 0 0 Z " transform="translate(476,522)" style="fill: #061E2B;"></path><path d="M0 0 C2.375 0.1875 2.375 0.1875 5 1 C6.4375 3.3125 6.4375 3.3125 7 6 C6.125 8.3125 6.125 8.3125 5 10 C4 9 4 9 3.9375 5.9375 C3.958125 4.968125 3.97875 3.99875 4 3 C3.34 3 2.68 3 2 3 C2 2.34 2 1.68 2 1 C1.34 0.67 0.68 0.34 0 0 Z " transform="translate(326,394)" style="fill: #2892A7;"></path><path d="M0 0 C1.2065625 0.0309375 1.2065625 0.0309375 2.4375 0.0625 C2.4375 0.7225 2.4375 1.3825 2.4375 2.0625 C0.47822937 3.7768618 -1.52130212 5.44655168 -3.5625 7.0625 C-3.8925 6.4025 -4.2225 5.7425 -4.5625 5.0625 C-3.9025 5.0625 -3.2425 5.0625 -2.5625 5.0625 C-2.8409375 4.1034375 -2.8409375 4.1034375 -3.125 3.125 C-3.3415625 2.1040625 -3.3415625 2.1040625 -3.5625 1.0625 C-2.5625 0.0625 -2.5625 0.0625 0 0 Z " transform="translate(275.5625,681.9375)" style="fill: #2981A2;"></path><path d="M0 0 C0.66 0.66 1.32 1.32 2 2 C0.37660195 3.70884005 -1.29319053 5.37446717 -3 7 C-3.66 7 -4.32 7 -5 7 C-5 7.66 -5 8.32 -5 9 C-5.99 8.67 -6.98 8.34 -8 8 C-5.36 5.36 -2.72 2.72 0 0 Z " transform="translate(276,666)" style="fill: #2882A1;"></path><path d="M0 0 C0.66 0.33 1.32 0.66 2 1 C0.02 3.31 -1.96 5.62 -4 8 C-4.99 7.67 -5.98 7.34 -7 7 C-7 6.01 -7 5.02 -7 4 C-6.401875 3.896875 -5.80375 3.79375 -5.1875 3.6875 C-2.71756736 2.91123545 -1.67748765 1.92911079 0 0 Z " transform="translate(256,418)" style="fill: #2788A1;"></path><path d="M0 0 C2.97 0.495 2.97 0.495 6 1 C6 1.66 6 2.32 6 3 C6.639375 3.28875 7.27875 3.5775 7.9375 3.875 C10 5 10 5 11 7 C6.89188572 5.55007731 3.53144334 3.54592427 0 1 C0 0.67 0 0.34 0 0 Z " transform="translate(304,518)" style="fill: #277E90;"></path><path d="M0 0 C0.66 0.33 1.32 0.66 2 1 C-0.31 3.64 -2.62 6.28 -5 9 C-5.66 8.67 -6.32 8.34 -7 8 C-4.69 5.36 -2.38 2.72 0 0 Z " transform="translate(222,453)" style="fill: #207CA0;"></path><path d="M0 0 C0.66 0 1.32 0 2 0 C0.54744301 3.82946843 -1.42895561 5.12050295 -5 7 C-5.66 6.34 -6.32 5.68 -7 5 C-2.25 2 -2.25 2 0 2 C0 1.34 0 0.68 0 0 Z " transform="translate(692,542)" style="fill: #071E30;"></path><path d="M0 0 C0.66 0.33 1.32 0.66 2 1 C2.1953125 7.0546875 2.1953125 7.0546875 2 9 C1.34 9.66 0.68 10.32 0 11 C-1.37432457 7.18243176 -0.67975039 3.92744671 0 0 Z " transform="translate(694,530)" style="fill: #021420;"></path><path d="M0 0 C0.66 0.33 1.32 0.66 2 1 C2.625 4.0625 2.625 4.0625 3 7 C1.68 7 0.36 7 -1 7 C-0.67 4.69 -0.34 2.38 0 0 Z " transform="translate(183,499)" style="fill: #2A81A2;"></path><path d="M0 0 C0 3 0 3 -2.5 5.6875 C-3.325 6.450625 -4.15 7.21375 -5 8 C-5.66 7.67 -6.32 7.34 -7 7 C-6.34 5.02 -5.68 3.04 -5 1 C-4.34 1.66 -3.68 2.32 -3 3 C-2.01 2.01 -1.02 1.02 0 0 Z " transform="translate(346,444)" style="fill: #2EA9CC;"></path><path d="M0 0 C0.33 0.66 0.66 1.32 1 2 C1.66 2 2.32 2 3 2 C3 3.65 3 5.3 3 7 C2.34 6.67 1.68 6.34 1 6 C1 5.34 1 4.68 1 4 C-1.31 3.67 -3.62 3.34 -6 3 C-6 2.67 -6 2.34 -6 2 C-4.02 2 -2.04 2 0 2 C0 1.34 0 0.68 0 0 Z " transform="translate(325,393)" style="fill: #2DABCA;"></path><path d="M0 0 C0.66 0.99 1.32 1.98 2 3 C-0.25 5.5625 -0.25 5.5625 -3 8 C-5.3125 7.8125 -5.3125 7.8125 -7 7 C-6.21625 6.5875 -5.4325 6.175 -4.625 5.75 C-1.94108344 3.9607223 -1.11901051 2.95011861 0 0 Z " transform="translate(485,585)" style="fill: #072236;"></path><path d="M0 0 C1.13643966 3.40931897 0.86747764 4.00335456 -0.4375 7.1875 C-0.72496094 7.90292969 -1.01242187 8.61835937 -1.30859375 9.35546875 C-1.65083984 10.16951172 -1.65083984 10.16951172 -2 11 C-2.66 11 -3.32 11 -4 11 C-3.48964169 6.6109185 -2.47785723 3.66291938 0 0 Z " transform="translate(278,523)" style="fill: #2CA9CD;"></path><path d="M0 0 C1.28132813 0.00902344 2.56265625 0.01804687 3.8828125 0.02734375 C4.87023437 0.03894531 5.85765625 0.05054688 6.875 0.0625 C6.875 0.3925 6.875 0.7225 6.875 1.0625 C5.61042969 1.15337891 5.61042969 1.15337891 4.3203125 1.24609375 C3.22460938 1.32988281 2.12890625 1.41367187 1 1.5 C-0.09054687 1.58121094 -1.18109375 1.66242188 -2.3046875 1.74609375 C-5.07228971 1.89251703 -5.07228971 1.89251703 -7.125 3.0625 C-7.785 2.4025 -8.445 1.7425 -9.125 1.0625 C-6.12186252 -0.43906874 -3.33432478 -0.03031204 0 0 Z " transform="translate(462.125,506.9375)" style="fill: #033B59;"></path><path d="M0 0 C1 2 1 2 0 5 C-0.66 5 -1.32 5 -2 5 C-1.34 3.35 -0.68 1.7 0 0 Z M-3 5 C-2.67 5.99 -2.34 6.98 -2 8 C-3.32 8.99 -4.64 9.98 -6 11 C-4.125 6.125 -4.125 6.125 -3 5 Z " transform="translate(295,497)" style="fill: #2AAACD;"></path><path d="M0 0 C0 4.38968456 -2.12805101 5.76905739 -5 9 C-5.66 8.67 -6.32 8.34 -7 8 C-4.69 5.36 -2.38 2.72 0 0 Z " transform="translate(247,491)" style="fill: #257B90;"></path><path d="M0 0 C0.66 0.66 1.32 1.32 2 2 C1.60467975 4.45098556 0.78698574 6.63904279 0 9 C-0.66 9 -1.32 9 -2 9 C-1.34 6.03 -0.68 3.06 0 0 Z " transform="translate(524,601)" style="fill: #092A37;"></path><path d="M0 0 C1.32 0.66 2.64 1.32 4 2 C-2.625 5.125 -2.625 5.125 -6 4 C-4.02 2.68 -2.04 1.36 0 0 Z " transform="translate(445,508)" style="fill: #0A2432;"></path><path d="M0 0 C0.8125 1.6875 0.8125 1.6875 1 4 C-1.4375 6.75 -1.4375 6.75 -4 9 C-3.46930939 5.17902761 -2.50298434 2.93828597 0 0 Z " transform="translate(247,368)" style="fill: #2EAACE;"></path><path d="M0 0 C0.33 0.66 0.66 1.32 1 2 C0.06421005 4.35981813 -0.93347808 6.69631264 -2 9 C-2.33 9 -2.66 9 -3 9 C-2.4140625 2.84765625 -2.4140625 2.84765625 -2 1 C-1.34 0.67 -0.68 0.34 0 0 Z " transform="translate(329,611)" style="fill: #2CA6CD;"></path><path d="M0 0 C-2.93720508 1.52299523 -5.9168649 2.80100302 -9 4 C-9 3.01 -9 2.02 -9 1 C-5.64919071 -1.10976881 -3.77897651 -1.0497157 0 0 Z " transform="translate(461,522)" style="fill: #0C2131;"></path><path d="M0 0 C0.66 0.33 1.32 0.66 2 1 C-1.465 3.97 -1.465 3.97 -5 7 C-5.66 6.67 -6.32 6.34 -7 6 C-4.69 4.02 -2.38 2.04 0 0 Z " transform="translate(339,449)" style="fill: #247E9B;"></path><path d="M0 0 C0.66 0 1.32 0 2 0 C0.63055898 2.94956528 -0.87830409 5.52468811 -3 8 C-3.66 8 -4.32 8 -5 8 C-3.63055898 5.05043472 -2.12169591 2.47531189 0 0 Z " transform="translate(263,409)" style="fill: #2B889A;"></path></svg>